<svg width="134" height="28" viewBox="0 0 134 28" fill="none" xmlns="http://www.w3.org/2000/svg">
<path d="M18.3578 13.693C18.3578 16.268 16.27 18.3558 13.695 18.3558C11.12 18.3558 9.03027 16.268 9.03027 13.693C9.03027 11.1179 11.1181 9.03015 13.695 9.03015C16.272 9.03015 18.3578 11.1179 18.3578 13.693Z" fill="#6353EA"/>
<path d="M13.6949 0C6.13032 0 0 6.13032 0 13.6929C0 21.2556 6.13032 27.3859 13.6949 27.3859C21.2595 27.3859 27.3879 21.2556 27.3879 13.6929C27.3879 6.13032 21.2575 0 13.6949 0ZM13.6949 22.2907C8.94601 22.2907 5.09523 18.4418 5.09523 13.6929C5.09523 8.94405 8.94601 5.09523 13.6949 5.09523C18.4438 5.09523 22.2926 8.94405 22.2926 13.6929C22.2926 18.4418 18.4418 22.2907 13.6949 22.2907Z" fill="#6353EA"/>
<path d="M96.4571 8.69165C92.5965 8.69165 89.4678 11.8224 89.4678 15.681C89.4678 19.5396 92.5985 22.6703 96.4571 22.6703C100.316 22.6703 103.446 19.5415 103.446 15.681C103.446 11.8204 100.318 8.69165 96.4571 8.69165ZM96.4571 19.8546C94.1521 19.8546 92.2815 17.9859 92.2815 15.681C92.2815 13.376 94.1501 11.5073 96.4571 11.5073C98.764 11.5073 100.631 13.376 100.631 15.681C100.631 17.9859 98.7621 19.8546 96.4571 19.8546Z" fill="#6353EA"/>
<path d="M111.886 8.69165C108.025 8.69165 104.896 11.8224 104.896 15.681C104.896 19.5396 108.027 22.6703 111.886 22.6703C115.744 22.6703 118.875 19.5415 118.875 15.681C118.875 11.8204 115.746 8.69165 111.886 8.69165ZM111.776 19.9192C109.434 19.9192 107.536 18.0212 107.536 15.681C107.536 13.3408 109.434 11.4428 111.776 11.4428C114.118 11.4428 116.014 13.3408 116.014 15.681C116.014 18.0212 114.116 19.9192 111.776 19.9192Z" fill="#6353EA"/>
<path d="M37.68 22.2768H34.8057V5.10291H47.6553V7.97729H37.68V12.4483H47.6553V14.8551H37.68V22.2749V22.2768Z" fill="#6353EA"/>
<path d="M53.2042 22.4844C52.6642 22.3611 52.1476 22.1204 51.6565 21.7604C51.1654 21.4004 50.7506 20.9053 50.416 20.2733C50.0794 19.6433 49.9131 18.8038 49.9131 17.755V9.03406H52.7875V17.0917C52.7875 17.7805 52.8618 18.3323 53.0086 18.751C53.1553 19.1678 53.3686 19.4926 53.6465 19.7215C53.9243 19.9505 54.2609 20.1031 54.6542 20.1755C55.0475 20.2479 55.4897 20.287 55.9808 20.287C56.4387 20.287 56.8535 20.242 57.2213 20.152C57.5892 20.062 57.9179 19.9426 58.2036 19.7959C58.4893 19.6491 58.7358 19.4808 58.9413 19.293C59.1467 19.1052 59.3228 18.9115 59.4696 18.7158C59.4735 18.7119 59.4755 18.706 59.4794 18.7021C59.9392 18.0544 60.1564 17.2659 60.1564 16.4715V9.03601H63.0073V22.3024H60.1564L60.2053 18.8625C60.1564 19.518 59.9881 20.0874 59.7024 20.5707C59.4148 21.054 59.0352 21.4512 58.5597 21.7624C58.0842 22.0735 57.5188 22.3024 56.8652 22.4511C56.2097 22.5979 55.4721 22.6722 54.6542 22.6722C54.2276 22.6722 53.7443 22.6116 53.2042 22.4883V22.4844Z" fill="#6353EA"/>
<path d="M130.372 8.85007C130.912 8.97334 131.429 9.21402 131.92 9.57405C132.411 9.93408 132.826 10.4291 133.161 11.0611C133.497 11.6912 133.664 12.5306 133.664 13.5794V22.3004H130.789V14.2427C130.789 13.554 130.715 13.0022 130.568 12.5834C130.421 12.1667 130.208 11.8419 129.93 11.6129C129.652 11.384 129.316 11.2314 128.922 11.159C128.529 11.0866 128.087 11.0474 127.596 11.0474C127.138 11.0474 126.723 11.0924 126.355 11.1825C125.987 11.2725 125.659 11.3918 125.373 11.5386C125.087 11.6853 124.841 11.8536 124.635 12.0414C124.43 12.2293 124.254 12.423 124.107 12.6187C124.103 12.6226 124.101 12.6284 124.097 12.6324C123.637 13.28 123.42 14.0686 123.42 14.863V22.2984H120.569V9.034H123.42L123.371 12.4739C123.42 11.8184 123.589 11.249 123.874 10.7657C124.162 10.2824 124.541 9.88516 125.017 9.57405C125.492 9.26293 126.058 9.034 126.711 8.88529C127.367 8.73854 128.105 8.66418 128.922 8.66418C129.349 8.66418 129.832 8.72484 130.372 8.84811V8.85007Z" fill="#6353EA"/>
<path d="M68.2908 22.3005H65.4399V4.61194H68.2908V22.3005Z" fill="#6353EA"/>
<path d="M73.595 22.3005H70.7441V4.61194H73.595V22.3005Z" fill="#6353EA"/>
<path d="M87.6481 12.376V12.7204H84.848V12.5247C84.848 11.8868 84.5037 11.4799 83.8169 11.3077C83.1301 11.1355 82.498 11.0494 81.9247 11.0494H81.4571C80.8505 11.0494 80.2205 11.1766 79.565 11.4309C78.9095 11.6853 78.5827 12.0982 78.5827 12.6715V12.9904C78.5827 13.5794 78.8606 13.9903 79.4182 14.2192C79.9739 14.4482 80.8192 14.5969 81.9482 14.6614C84.126 14.7925 85.6992 15.0919 86.6658 15.5576C87.6324 16.0253 88.1157 16.9782 88.1157 18.4203V18.8625C88.1157 20.3045 87.5091 21.2986 86.298 21.8484C85.0848 22.3963 83.6447 22.6721 81.9737 22.6721H81.506C79.7372 22.6721 78.299 22.3845 77.1935 21.8132C76.0879 21.2398 75.5361 20.3222 75.5361 19.062V18.6453H78.3616V18.7196C78.3616 19.3419 78.6942 19.7841 79.3576 20.0463C80.0209 20.3085 80.7781 20.4396 81.6293 20.4396H82.0969C83.2925 20.4396 84.1358 20.2478 84.6269 19.8623C85.1181 19.4769 85.3646 19.1286 85.3646 18.8175V18.5474C85.3646 17.9917 85.0574 17.5808 84.443 17.3186C83.8286 17.0564 82.8424 16.9019 81.4825 16.851C80.2205 16.8177 78.9525 16.5653 77.6748 16.0898C76.3971 15.6144 75.7827 14.5577 75.8316 12.92L75.857 12.4523C75.8903 11.0103 76.5086 10.0202 77.712 9.48012C78.9153 8.94007 80.107 8.67004 81.2869 8.67004H81.7545C83.2944 8.67004 84.6622 8.9205 85.8577 9.41946C87.0532 9.91841 87.652 10.9065 87.652 12.3799L87.6481 12.376Z" fill="#6353EA"/>
</svg>
