<svg width="28" height="28" viewBox="0 0 28 28" fill="none" xmlns="http://www.w3.org/2000/svg">
<path d="M18.3578 13.693C18.3578 16.268 16.27 18.3558 13.695 18.3558C11.12 18.3558 9.03027 16.268 9.03027 13.693C9.03027 11.1179 11.1181 9.03015 13.695 9.03015C16.272 9.03015 18.3578 11.1179 18.3578 13.693Z" fill="#6353EA"/>
<path d="M13.6949 0C6.13032 0 0 6.13032 0 13.6929C0 21.2556 6.13032 27.3859 13.6949 27.3859C21.2595 27.3859 27.3879 21.2556 27.3879 13.6929C27.3879 6.13032 21.2575 0 13.6949 0ZM13.6949 22.2907C8.94601 22.2907 5.09523 18.4418 5.09523 13.6929C5.09523 8.94405 8.94601 5.09523 13.6949 5.09523C18.4438 5.09523 22.2926 8.94405 22.2926 13.6929C22.2926 18.4418 18.4418 22.2907 13.6949 22.2907Z" fill="#6353EA"/>
</svg>
