<?xml version="1.0" encoding="UTF-8" standalone="no" ?>
<!DOCTYPE svg PUBLIC "-//W3C//DTD SVG 1.1//EN" "http://www.w3.org/Graphics/SVG/1.1/DTD/svg11.dtd">
<svg xmlns="http://www.w3.org/2000/svg" xmlns:xlink="http://www.w3.org/1999/xlink" version="1.1" width="1080" height="1080" viewBox="0 0 1080 1080" xml:space="preserve">
<desc>Created with Fabric.js 5.2.4</desc>
<defs>
</defs>
<g transform="matrix(1 0 0 1 540 540)" id="d1a03aa8-c780-4a4d-85dd-efb545ecbf7d"  >
<rect style="stroke: none; stroke-width: 1; stroke-dasharray: none; stroke-linecap: butt; stroke-dashoffset: 0; stroke-linejoin: miter; stroke-miterlimit: 4; fill: rgb(255,255,255); fill-rule: nonzero; opacity: 1; visibility: hidden;" vector-effect="non-scaling-stroke"  x="-540" y="-540" rx="0" ry="0" width="1080" height="1080" />
</g>
<g transform="matrix(1 0 0 1 540 540)" id="f4035aee-5795-4b6f-944c-48dc90777658"  >
</g>
<g transform="matrix(1 0 0 1.1 540 563.02)" id="58240a9c-4135-4981-b470-1d3987600403"  >
<path style="stroke: rgb(0,0,0); stroke-width: 0; stroke-dasharray: none; stroke-linecap: butt; stroke-dashoffset: 0; stroke-linejoin: miter; stroke-miterlimit: 4; fill: rgb(212,79,79); fill-rule: nonzero; opacity: 1;" vector-effect="non-scaling-stroke"  transform=" translate(-192, -255.99)" d="M 169.4 470.6 C 181.9 483.1 202.2 483.1 214.7 470.6 L 374.7 310.6 C 387.2 298.1 387.2 277.8 374.7 265.3 C 362.2 252.8 341.9 252.8 329.4 265.3 L 224 370.8 L 224 64 C 224 46.3 209.7 32 192 32 C 174.3 32 160 46.3 160 64 L 160 370.7 L 54.6 265.4 C 42.1 252.89999999999998 21.800000000000004 252.89999999999998 9.300000000000004 265.4 C -3.1999999999999957 277.9 -3.1999999999999957 298.2 9.300000000000004 310.7 L 169.3 470.7 z" stroke-linecap="round" />
</g>
<g transform="matrix(NaN NaN NaN NaN 0 0)"  >
<g style=""   >
</g>
</g>
</svg>