<?xml version="1.0" encoding="UTF-8" standalone="no" ?>
<!DOCTYPE svg PUBLIC "-//W3C//DTD SVG 1.1//EN" "http://www.w3.org/Graphics/SVG/1.1/DTD/svg11.dtd">
<svg xmlns="http://www.w3.org/2000/svg" xmlns:xlink="http://www.w3.org/1999/xlink" version="1.1" width="1080" height="1080" viewBox="0 0 1080 1080" xml:space="preserve">
<desc>Created with Fabric.js 5.2.4</desc>
<defs>
</defs>
<g transform="matrix(1 0 0 1 540 540)" id="e9920e8b-92ce-4bad-bd22-7ae96e38f837"  >
<rect style="stroke: none; stroke-width: 1; stroke-dasharray: none; stroke-linecap: butt; stroke-dashoffset: 0; stroke-linejoin: miter; stroke-miterlimit: 4; fill: rgb(255,255,255); fill-rule: nonzero; opacity: 1; visibility: hidden;" vector-effect="non-scaling-stroke"  x="-540" y="-540" rx="0" ry="0" width="1080" height="1080" />
</g>
<g transform="matrix(1 0 0 1 540 540)" id="e11296bb-9bbf-422a-afba-00ef7c5a8405"  >
</g>
<g transform="matrix(1 0 0 1.11 540 564.85)" id="a43b340c-5d61-403a-9e58-ae73d9139640"  >
<path style="stroke: rgb(0,0,0); stroke-width: 0; stroke-dasharray: none; stroke-linecap: butt; stroke-dashoffset: 0; stroke-linejoin: miter; stroke-miterlimit: 4; fill: rgb(75,184,75); fill-rule: nonzero; opacity: 1;" vector-effect="non-scaling-stroke"  transform=" translate(-192, -256.01)" d="M 214.6 41.4 C 202.1 28.9 181.8 28.9 169.3 41.4 L 9.300000000000011 201.4 C -3.1999999999999886 213.9 -3.1999999999999886 234.2 9.300000000000011 246.7 C 21.80000000000001 259.2 42.10000000000001 259.2 54.60000000000001 246.7 L 160 141.2 L 160 448 C 160 465.7 174.3 480 192 480 C 209.7 480 224 465.7 224 448 L 224 141.2 L 329.4 246.6 C 341.9 259.1 362.2 259.1 374.7 246.6 C 387.2 234.09999999999997 387.2 213.8 374.7 201.3 L 214.7 41.30000000000001 z" stroke-linecap="round" />
</g>
<g transform="matrix(NaN NaN NaN NaN 0 0)"  >
<g style=""   >
</g>
</g>
<g transform="matrix(NaN NaN NaN NaN 0 0)"  >
<g style=""   >
</g>
</g>
</svg>