<svg width="23" height="23" viewBox="0 0 23 23" fill="none" xmlns="http://www.w3.org/2000/svg">
<path d="M16.0994 8.9545C16.1102 8.8566 16.1017 8.75752 16.0742 8.66293C16.0468 8.56833 16.0009 8.48007 15.9394 8.40319C15.8778 8.3263 15.8017 8.26229 15.7154 8.21482C15.6291 8.16734 15.5343 8.13733 15.4364 8.1265C15.3385 8.11567 15.2394 8.12422 15.1448 8.15168C15.0502 8.17913 14.962 8.22495 14.8851 8.28651C14.8082 8.34808 14.7442 8.42419 14.6967 8.51049C14.6492 8.59679 14.6192 8.6916 14.6084 8.7895C14.5471 9.34016 14.313 9.85728 13.9399 10.2668C13.5667 10.6764 13.0735 10.9573 12.5309 11.0695C12.336 11.1097 12.165 11.2257 12.0555 11.3919C11.9461 11.5582 11.9072 11.7611 11.9474 11.956C11.9876 12.1509 12.1036 12.3219 12.2698 12.4313C12.4361 12.5408 12.639 12.5797 12.8339 12.5395C13.687 12.3633 14.4625 11.9215 15.0491 11.2775C15.6357 10.6335 16.0034 9.82032 16.0994 8.9545Z" fill="black"/>
<path d="M6.75 1C6.55109 1 6.36032 1.07902 6.21967 1.21967C6.07902 1.36032 6 1.55109 6 1.75V9.25C5.9995 10.7118 6.53264 12.1234 7.49932 13.2199C8.46599 14.3164 9.7997 15.0223 11.25 15.205V20.5H9C8.80109 20.5 8.61032 20.579 8.46967 20.7197C8.32902 20.8603 8.25 21.0511 8.25 21.25C8.25 21.4489 8.32902 21.6397 8.46967 21.7803C8.61032 21.921 8.80109 22 9 22H15C15.1989 22 15.3897 21.921 15.5303 21.7803C15.671 21.6397 15.75 21.4489 15.75 21.25C15.75 21.0511 15.671 20.8603 15.5303 20.7197C15.3897 20.579 15.1989 20.5 15 20.5H12.75V15.25V15.205C14.2003 15.0223 15.534 14.3164 16.5007 13.2199C17.4674 12.1234 18.0005 10.7118 18 9.25V1.75C18 1.55109 17.921 1.36032 17.7803 1.21967C17.6397 1.07902 17.4489 1 17.25 1H6.75ZM7.5 5.5V2.5H16.5V5.5H7.5ZM7.5 7H16.5V9.25C16.5 10.4435 16.0259 11.5881 15.182 12.432C14.3381 13.2759 13.1935 13.75 12 13.75C10.8065 13.75 9.66193 13.2759 8.81802 12.432C7.97411 11.5881 7.5 10.4435 7.5 9.25V7Z" fill="black"/>
</svg>
