<svg width="34" height="34" viewBox="0 0 34 34" fill="none" xmlns="http://www.w3.org/2000/svg">
<g filter="url(#filter0_d_2521_1809)">
<path d="M17 32C20.1645 32 23.2579 31.0616 25.8891 29.3035C28.5203 27.5454 30.5711 25.0466 31.7821 22.1229C32.9931 19.1993 33.3099 15.9823 32.6926 12.8786C32.0752 9.77486 30.5513 6.92394 28.3137 4.6863C26.0761 2.44866 23.2251 0.924806 20.1214 0.307443C17.0177 -0.309921 13.8007 0.00693262 10.8771 1.21793C7.95345 2.42894 5.45459 4.4797 3.69649 7.11088C1.93838 9.74207 1 12.8355 1 16C1 20.2435 2.68571 24.3131 5.68629 27.3137C8.68687 30.3143 12.7565 32 17 32ZM8.69454 16.4218C8.96707 16.1509 9.33573 15.9989 9.72 15.9989C10.1043 15.9989 10.4729 16.1509 10.7455 16.4218L14.0909 19.7673L22.5127 11.3455C22.791 11.1072 23.1489 10.9826 23.515 10.9968C23.8811 11.0109 24.2283 11.1627 24.4874 11.4217C24.7464 11.6808 24.8982 12.028 24.9123 12.3941C24.9264 12.7602 24.8019 13.1181 24.5636 13.3964L15.1091 22.8509C14.8366 23.1218 14.4679 23.2739 14.0836 23.2739C13.6994 23.2739 13.3307 23.1218 13.0582 22.8509L8.69454 18.4873C8.55821 18.3521 8.45 18.1912 8.37616 18.0139C8.30231 17.8367 8.26429 17.6466 8.26429 17.4545C8.26429 17.2625 8.30231 17.0724 8.37616 16.8952C8.45 16.7179 8.55821 16.557 8.69454 16.4218Z" fill="#D9D9D9"/>
</g>
<defs>
<filter id="filter0_d_2521_1809" x="0" y="0" width="34" height="34" filterUnits="userSpaceOnUse" color-interpolation-filters="sRGB">
<feFlood flood-opacity="0" result="BackgroundImageFix"/>
<feColorMatrix in="SourceAlpha" type="matrix" values="0 0 0 0 0 0 0 0 0 0 0 0 0 0 0 0 0 0 127 0" result="hardAlpha"/>
<feOffset dy="1"/>
<feGaussianBlur stdDeviation="0.5"/>
<feComposite in2="hardAlpha" operator="out"/>
<feColorMatrix type="matrix" values="0 0 0 0 0 0 0 0 0 0 0 0 0 0 0 0 0 0 0.25 0"/>
<feBlend mode="normal" in2="BackgroundImageFix" result="effect1_dropShadow_2521_1809"/>
<feBlend mode="normal" in="SourceGraphic" in2="effect1_dropShadow_2521_1809" result="shape"/>
</filter>
</defs>
</svg>
