<svg width="23" height="23" viewBox="0 0 23 23" fill="none" xmlns="http://www.w3.org/2000/svg">
<path d="M9.10449 15.3333L8.21325 16.4066L7.68616 17.0392C7.23575 17.5758 6.37324 17.4608 6.07616 16.8187L4.79199 13.9916C3.04783 12.7649 1.91699 10.8195 1.91699 8.62496C1.91699 4.91621 5.13699 1.91663 9.10449 1.91663C11.9987 1.91663 14.4999 3.51705 15.6212 5.81705C16.0524 6.66997 16.292 7.61871 16.292 8.62496C16.292 12.3337 13.072 15.3333 9.10449 15.3333Z" stroke="#6353EA" stroke-width="1.4375" stroke-linecap="round" stroke-linejoin="round"/>
<path d="M18.2083 17.6909L16.9241 20.5179C16.6271 21.16 15.7645 21.2846 15.3141 20.7384L13.8958 19.0325C11.5766 19.0325 9.50664 18.0071 8.21289 16.4067L9.10413 15.3334C13.0716 15.3334 16.2916 12.3338 16.2916 8.62505C16.2916 7.6188 16.0521 6.67006 15.6208 5.81714C18.7546 6.53589 21.0833 9.18087 21.0833 12.3242C21.0833 14.5188 19.9525 16.4642 18.2083 17.6909Z" stroke="#6353EA" stroke-width="1.4375" stroke-linecap="round" stroke-linejoin="round"/>
<path d="M6.70801 8.625H11.4997" stroke="#6353EA" stroke-width="1.4375" stroke-linecap="round" stroke-linejoin="round"/>
</svg>
