<svg width="23" height="23" viewBox="0 0 23 23" fill="none" xmlns="http://www.w3.org/2000/svg">
<path d="M9.10416 15.3333L8.21291 16.4067L7.68583 17.0392C7.23541 17.5759 6.3729 17.4608 6.07582 16.8187L4.79166 13.9916C3.04749 12.765 1.91666 10.8196 1.91666 8.62499C1.91666 4.91624 5.13666 1.91666 9.10416 1.91666C11.9983 1.91666 14.4996 3.51708 15.6208 5.81708C16.0521 6.67 16.2917 7.61874 16.2917 8.62499C16.2917 12.3337 13.0717 15.3333 9.10416 15.3333Z" stroke="#292D32" stroke-width="1.4375" stroke-linecap="round" stroke-linejoin="round"/>
<path d="M18.2083 17.6909L16.9242 20.5179C16.6271 21.16 15.7646 21.2846 15.3142 20.7384L13.8958 19.0325C11.5767 19.0325 9.50667 18.0071 8.21292 16.4067L9.10416 15.3334C13.0717 15.3334 16.2917 12.3338 16.2917 8.62505C16.2917 7.6188 16.0521 6.67006 15.6208 5.81714C18.7546 6.53589 21.0833 9.18087 21.0833 12.3242C21.0833 14.5188 19.9525 16.4642 18.2083 17.6909Z" stroke="#292D32" stroke-width="1.4375" stroke-linecap="round" stroke-linejoin="round"/>
<path d="M6.70834 8.625H11.5" stroke="#292D32" stroke-width="1.4375" stroke-linecap="round" stroke-linejoin="round"/>
</svg>
