<svg width="23" height="23" viewBox="0 0 23 23" fill="none" xmlns="http://www.w3.org/2000/svg">
<path d="M6.42083 17.25H3.9771C2.60668 17.25 1.91666 16.56 1.91666 15.1896V3.97713C1.91666 2.60671 2.60668 1.91669 3.9771 1.91669H8.09792C9.46833 1.91669 10.1583 2.60671 10.1583 3.97713V5.75002" stroke="black" stroke-width="1.67773" stroke-linecap="round" stroke-linejoin="round"/>
<path d="M16.6462 18.7642C16.6462 20.3071 15.8796 21.0833 14.3366 21.0833H8.73996C7.19704 21.0833 6.42081 20.3071 6.42081 18.7642V8.06915C6.42081 6.52623 7.19704 5.75 8.73996 5.75H14.3366C15.8796 5.75 16.6462 6.52623 16.6462 8.06915V18.7642Z" stroke="black" stroke-width="1.67773" stroke-linecap="round" stroke-linejoin="round"/>
<path d="M12.8416 5.75002V3.97713C12.8416 2.60671 13.5315 1.91669 14.9019 1.91669H19.0228C20.3932 1.91669 21.0832 2.60671 21.0832 3.97713V15.1896C21.0832 16.56 20.3932 17.25 19.0228 17.25H16.6461" stroke="black" stroke-width="1.67773" stroke-linecap="round" stroke-linejoin="round"/>
<path d="M9.58334 10.5417H13.4167" stroke="black" stroke-width="1.67773" stroke-linecap="round" stroke-linejoin="round"/>
<path d="M9.58334 13.4167H13.4167" stroke="black" stroke-width="1.67773" stroke-linecap="round" stroke-linejoin="round"/>
<path d="M11.5 21.0833V18.2083" stroke="black" stroke-width="1.67773" stroke-linecap="round" stroke-linejoin="round"/>
</svg>
