<svg width="23" height="23" viewBox="0 0 23 23" fill="none" xmlns="http://www.w3.org/2000/svg">
<path d="M6.47195 12.0552C5.90597 11.9422 5.36839 11.7169 4.89099 11.3926C4.4136 11.0683 4.00608 10.6515 3.69255 10.167C3.37902 9.6824 3.16583 9.1399 3.0656 8.57152C2.96537 8.00315 2.98012 7.42045 3.109 6.85788C3.23787 6.29531 3.47824 5.7643 3.8159 5.29624C4.15356 4.82818 4.58164 4.43257 5.07484 4.13283C5.56804 3.83308 6.11634 3.63528 6.68731 3.55111C7.25828 3.46694 7.84034 3.49812 8.39905 3.64281C8.80274 3.1303 9.31753 2.71615 9.9046 2.43157C10.4917 2.147 11.1357 1.99943 11.7881 2C12.4593 1.99942 13.1213 2.15558 13.7215 2.45606C14.3217 2.75654 14.8434 3.19302 15.2451 3.73074C15.8048 3.54085 16.3976 3.46794 16.9867 3.51652C17.5757 3.5651 18.1486 3.73414 18.6697 4.01316C19.1907 4.29218 19.649 4.67524 20.0159 5.13859C20.3829 5.60195 20.6508 6.13574 20.8031 6.70687C20.9553 7.27801 20.9887 7.87432 20.901 8.45887C20.8134 9.04341 20.6066 9.60373 20.2936 10.1051C19.9805 10.6065 19.5678 11.0382 19.0811 11.3736C18.5944 11.7089 18.0439 11.9408 17.4639 12.0547V19.9869C17.4639 20.2519 17.3587 20.5061 17.1713 20.6935C16.9839 20.8809 16.7297 20.9862 16.4647 20.9862H7.47122C7.2062 20.9862 6.95203 20.8809 6.76463 20.6935C6.57723 20.5061 6.47195 20.2519 6.47195 19.9869V12.0552Z" stroke="black" stroke-width="1.5" stroke-linecap="round" stroke-linejoin="round"/>
<path d="M6.47183 15.4902H17.4638" stroke="black" stroke-width="1.5" stroke-linecap="round" stroke-linejoin="round"/>
<path d="M9.9693 12.4924V15.4902" stroke="black" stroke-width="1.5" stroke-linecap="round" stroke-linejoin="round"/>
<path d="M17.4638 13.9913V16.9891" stroke="black" stroke-width="1.5" stroke-linecap="round" stroke-linejoin="round"/>
<path d="M6.47183 13.9913V16.9891" stroke="black" stroke-width="1.5" stroke-linecap="round" stroke-linejoin="round"/>
</svg>
