<svg width="21" height="10" viewBox="0 0 21 10" fill="none" xmlns="http://www.w3.org/2000/svg">
<path fill-rule="evenodd" clip-rule="evenodd" d="M6.3 4.9C6.3 5.44124 6.7701 5.88 7.35 5.88H13.65C14.2299 5.88 14.7 5.44124 14.7 4.9C14.7 4.35876 14.2299 3.92 13.65 3.92H7.35C6.7701 3.92 6.3 4.35876 6.3 4.9ZM8.4 7.84H5.25C3.5103 7.84 2.1 6.52372 2.1 4.9C2.1 3.27628 3.5103 1.96 5.25 1.96H8.4C8.9799 1.96 9.45 1.52124 9.45 0.98C9.45 0.438761 8.9799 0 8.4 0H5.25C2.3505 0 0 2.1938 0 4.9C0 7.6062 2.3505 9.8 5.25 9.8H8.4C8.9799 9.8 9.45 9.36124 9.45 8.82C9.45 8.27876 8.9799 7.84 8.4 7.84ZM15.75 0H12.6C12.0201 0 11.55 0.438761 11.55 0.98C11.55 1.52124 12.0201 1.96 12.6 1.96H15.75C17.4897 1.96 18.9 3.27628 18.9 4.9C18.9 6.52372 17.4897 7.84 15.75 7.84H12.6C12.0201 7.84 11.55 8.27876 11.55 8.82C11.55 9.36124 12.0201 9.8 12.6 9.8H15.75C18.6495 9.8 21 7.6062 21 4.9C21 2.1938 18.6495 0 15.75 0Z" fill="white"/>
</svg>
