<svg width="32" height="32" viewBox="0 0 32 32" fill="none" xmlns="http://www.w3.org/2000/svg">
<path d="M16 32C19.1645 32 22.2579 31.0616 24.8891 29.3035C27.5203 27.5454 29.5711 25.0466 30.7821 22.1229C31.9931 19.1993 32.3099 15.9823 31.6926 12.8786C31.0752 9.77487 29.5513 6.92394 27.3137 4.6863C25.0761 2.44866 22.2251 0.924806 19.1214 0.307443C16.0177 -0.309921 12.8007 0.00693261 9.87706 1.21793C6.95345 2.42894 4.45459 4.4797 2.69649 7.11088C0.938383 9.74207 0 12.8355 0 16C0 20.2435 1.68571 24.3131 4.68629 27.3137C7.68687 30.3143 11.7565 32 16 32Z" fill="#D9D9D9"/>
<path d="M21.0907 10.1819L10.1816 21.091" stroke="#535355" stroke-width="2" stroke-linecap="round"/>
<path d="M21.0908 21.091L10.1817 10.1819" stroke="#535355" stroke-width="2" stroke-linecap="round"/>
</svg>
