<svg width="23" height="23" viewBox="0 0 23 23" fill="none" xmlns="http://www.w3.org/2000/svg">
<path d="M21.0833 3.92913C21.0833 2.49163 20.47 1.91663 18.9463 1.91663H15.0746C13.5508 1.91663 12.9375 2.49163 12.9375 3.92913V10.4458C12.9375 11.8833 13.5508 12.4583 15.0746 12.4583H18.9463C20.47 12.4583 21.0833 11.8833 21.0833 10.4458V3.92913Z" stroke="black" stroke-width="1.90142" stroke-linecap="round" stroke-linejoin="round"/>
<path d="M21.0833 17.3459C21.0833 15.9084 20.47 15.3334 18.9463 15.3334H15.0746C13.5508 15.3334 12.9375 15.9084 12.9375 17.3459V19.0709C12.9375 20.5084 13.5508 21.0834 15.0746 21.0834H18.9463C20.47 21.0834 21.0833 20.5084 21.0833 19.0709V17.3459Z" stroke="black" stroke-width="1.90142" stroke-linecap="round" stroke-linejoin="round"/>
<path d="M10.0625 19.0709C10.0625 20.5084 9.44916 21.0834 7.92541 21.0834H4.05374C2.52999 21.0834 1.91666 20.5084 1.91666 19.0709V12.5542C1.91666 11.1167 2.52999 10.5417 4.05374 10.5417H7.92541C9.44916 10.5417 10.0625 11.1167 10.0625 12.5542V19.0709Z" stroke="black" stroke-width="1.90142" stroke-linecap="round" stroke-linejoin="round"/>
<path d="M10.0625 5.65413C10.0625 7.09163 9.44916 7.66663 7.92541 7.66663H4.05374C2.52999 7.66663 1.91666 7.09163 1.91666 5.65413V3.92913C1.91666 2.49163 2.52999 1.91663 4.05374 1.91663H7.92541C9.44916 1.91663 10.0625 2.49163 10.0625 3.92913V5.65413Z" stroke="black" stroke-width="1.90142" stroke-linecap="round" stroke-linejoin="round"/>
</svg>
