<svg width="23" height="23" viewBox="0 0 23 23" fill="none" xmlns="http://www.w3.org/2000/svg">
<path d="M15.8316 5.41461L12.8608 3.11461C12.4775 2.73128 11.615 2.53961 11.04 2.53961H7.39831C6.24831 2.53961 5.00248 3.40211 4.71498 4.55211L2.41498 11.5479C1.93581 12.8896 2.79831 14.0396 4.23581 14.0396H8.06914C8.64414 14.0396 9.12331 14.5188 9.02748 15.1896L8.54831 18.2563C8.35664 19.1188 8.93164 20.0771 9.79414 20.3646C10.5608 20.6521 11.5191 20.2688 11.9025 19.6938L15.8316 13.8479" stroke="#292D32" stroke-width="1.4375"/>
<path d="M20.7192 14.8062C20.7192 16.1479 20.1442 16.6271 18.8025 16.6271H17.8442C16.5025 16.6271 15.9275 16.1479 15.9275 14.8062V5.41458C15.9275 4.07292 16.5025 3.59375 17.8442 3.59375H18.8025C20.1442 3.59375 20.7192 4.07292 20.7192 5.41458V14.8062Z" stroke="#292D32" stroke-width="1.4375" stroke-linecap="round" stroke-linejoin="round"/>
</svg>
