<svg width="23" height="23" viewBox="0 0 23 23" fill="none" xmlns="http://www.w3.org/2000/svg">
<path d="M15.832 5.41455L12.8611 3.11455C12.4778 2.73122 11.6153 2.53955 11.0403 2.53955H7.39865C6.24865 2.53955 5.00281 3.40205 4.71531 4.55205L2.41531 11.5479C1.93615 12.8896 2.79865 14.0396 4.23615 14.0396H8.06948C8.64448 14.0396 9.12365 14.5187 9.02781 15.1896L8.54865 18.2562C8.35698 19.1187 8.93198 20.0771 9.79448 20.3646C10.5611 20.6521 11.5195 20.2687 11.9028 19.6937L15.832 13.8479" stroke="#E73858" stroke-width="1.4375"/>
<path d="M20.7194 14.8062C20.7194 16.1479 20.1444 16.6271 18.8027 16.6271H17.8444C16.5027 16.6271 15.9277 16.1479 15.9277 14.8062V5.41458C15.9277 4.07292 16.5027 3.59375 17.8444 3.59375H18.8027C20.1444 3.59375 20.7194 4.07292 20.7194 5.41458V14.8062Z" stroke="#E73858" stroke-width="1.4375" stroke-linecap="round" stroke-linejoin="round"/>
</svg>
