<svg width="13" height="11" viewBox="0 0 13 11" fill="none" xmlns="http://www.w3.org/2000/svg">
<path d="M2.64569 10.419C2.65418 10.4169 2.66183 10.4122 2.66758 10.4056C2.68313 10.3878 2.68123 10.3608 2.66335 10.3454L1.03118 8.93584C1.0116 8.91893 0.982037 8.921 0.965008 8.94048C0.96087 8.94522 0.957722 8.95073 0.955752 8.95671L0.451144 10.4859C0.377249 10.7099 0.578733 10.9276 0.807722 10.8713L2.64569 10.419Z" fill="#873CFC"/>
<path d="M1.75129 8.60399C1.61348 8.48438 1.61348 8.27046 1.75129 8.15085L8.53155 2.26636C8.64436 2.16845 8.81201 2.16845 8.92482 2.26636L10.2837 3.44571C10.4215 3.56532 10.4215 3.77924 10.2837 3.89885L3.50344 9.78334C3.39063 9.88124 3.22298 9.88124 3.11017 9.78334L1.75129 8.60399Z" fill="#873CFC"/>
<path d="M11.1848 0.17307C11.0718 0.0739686 10.903 0.073687 10.7898 0.172412L9.59443 1.21437C9.45691 1.33424 9.45732 1.54808 9.5953 1.66742L11.1064 2.97444C11.2186 3.07153 11.385 3.07195 11.4978 2.97544L12.6929 1.95235C12.8316 1.83358 12.8329 1.61944 12.6956 1.49897L11.1848 0.17307Z" fill="#873CFC"/>
</svg>
