<svg width="15" height="10" viewBox="0 0 15 10" fill="none" xmlns="http://www.w3.org/2000/svg">
<path d="M1.21521 5.78125V5.785C1.19416 5.86439 1.15766 5.93886 1.10781 6.00414C1.05796 6.06941 0.995734 6.12423 0.924685 6.16544C0.853637 6.20665 0.775162 6.23346 0.693748 6.24432C0.612333 6.25518 0.529576 6.24989 0.450208 6.22875C-0.0885423 6.08625 0.00645763 5.465 0.00645763 5.465L0.0277076 5.3875C0.0277076 5.3875 0.0602078 5.2825 0.0864578 5.20625C0.407234 4.30686 0.879457 3.46895 1.48271 2.72875C2.60646 1.36125 4.49271 0 7.48521 0C10.479 0 12.3652 1.36125 13.4865 2.72875C14.0897 3.46895 14.5619 4.30686 14.8827 5.20625C14.9097 5.28353 14.9347 5.36147 14.9577 5.44L14.9615 5.45625L14.964 5.46125V5.46375C15.0036 5.62283 14.9792 5.79112 14.8959 5.93235C14.8126 6.07358 14.6772 6.17643 14.5188 6.21873C14.3604 6.26103 14.1917 6.23941 14.0491 6.15851C13.9065 6.07761 13.8014 5.94392 13.7565 5.78625L13.7552 5.78125L13.7452 5.75C13.6743 5.52877 13.5908 5.31175 13.4952 5.1C13.2404 4.53352 12.9126 4.00277 12.5202 3.52125C11.5915 2.39 10.0402 1.25 7.48521 1.25C4.93021 1.25 3.37771 2.39 2.45021 3.52125C1.94085 4.14686 1.54143 4.85442 1.26896 5.61375C1.25351 5.65889 1.23893 5.70431 1.22521 5.75L1.21521 5.78125Z" fill="black"/>
<path d="M7.48535 3.75C6.65655 3.75 5.86169 4.07924 5.27564 4.66529C4.68959 5.25134 4.36035 6.0462 4.36035 6.875C4.36035 7.7038 4.68959 8.49866 5.27564 9.08471C5.86169 9.67076 6.65655 10 7.48535 10C8.31415 10 9.10901 9.67076 9.69506 9.08471C10.2811 8.49866 10.6104 7.7038 10.6104 6.875C10.6104 6.0462 10.2811 5.25134 9.69506 4.66529C9.10901 4.07924 8.31415 3.75 7.48535 3.75ZM5.61035 6.875C5.61035 6.37772 5.8079 5.90081 6.15953 5.54917C6.51116 5.19754 6.98807 5 7.48535 5C7.98263 5 8.45955 5.19754 8.81118 5.54917C9.16281 5.90081 9.36035 6.37772 9.36035 6.875C9.36035 7.37228 9.16281 7.84919 8.81118 8.20083C8.45955 8.55246 7.98263 8.75 7.48535 8.75C6.98807 8.75 6.51116 8.55246 6.15953 8.20083C5.8079 7.84919 5.61035 7.37228 5.61035 6.875Z" fill="black"/>
</svg>