<svg width="21" height="22" viewBox="0 0 21 22" fill="none" xmlns="http://www.w3.org/2000/svg">
<path d="M19.25 6.1875H14" stroke="white" stroke-width="1.4375" stroke-linecap="round" stroke-linejoin="round"/>
<path d="M5.25 6.1875H1.75" stroke="white" stroke-width="1.4375" stroke-linecap="round" stroke-linejoin="round"/>
<path fill-rule="evenodd" clip-rule="evenodd" d="M8.75 9.25C7.05863 9.25 5.6875 7.87887 5.6875 6.1875C5.6875 4.49613 7.05863 3.125 8.75 3.125C10.4414 3.125 11.8125 4.49613 11.8125 6.1875C11.8125 7.87887 10.4414 9.25 8.75 9.25Z" stroke="white" stroke-width="1.4375" stroke-linecap="round" stroke-linejoin="round"/>
<path d="M19.25 15.8125H15.75" stroke="white" stroke-width="1.4375" stroke-linecap="round" stroke-linejoin="round"/>
<path d="M7 15.8125H1.75" stroke="white" stroke-width="1.4375" stroke-linecap="round" stroke-linejoin="round"/>
<path fill-rule="evenodd" clip-rule="evenodd" d="M12.25 18.875C10.5586 18.875 9.1875 17.5039 9.1875 15.8125C9.1875 14.1211 10.5586 12.75 12.25 12.75C13.9414 12.75 15.3125 14.1211 15.3125 15.8125C15.3125 17.5039 13.9414 18.875 12.25 18.875Z" stroke="white" stroke-width="1.4375" stroke-linecap="round" stroke-linejoin="round"/>
</svg>
