<svg width="23" height="23" viewBox="0 0 23 23" fill="none" xmlns="http://www.w3.org/2000/svg">
<path d="M8.31055 13.7327C8.31055 14.969 9.2593 15.9657 10.438 15.9657H12.8435C13.8689 15.9657 14.7026 15.0936 14.7026 14.0202C14.7026 12.8511 14.1947 12.439 13.4376 12.1707L9.57555 10.829C8.81846 10.5607 8.31055 10.1486 8.31055 8.97941C8.31055 7.90608 9.1443 7.034 10.1697 7.034H12.5751C13.7539 7.034 14.7026 8.03066 14.7026 9.26691" stroke="black" stroke-width="1.67773" stroke-linecap="round" stroke-linejoin="round"/>
<path d="M11.5 5.75V17.25" stroke="black" stroke-width="1.67773" stroke-linecap="round" stroke-linejoin="round"/>
<path fill-rule="evenodd" clip-rule="evenodd" d="M11.5 21.0834C6.20726 21.0834 1.91666 16.7927 1.91666 11.5C1.91666 6.20729 6.20726 1.91669 11.5 1.91669C16.7927 1.91669 21.0833 6.20729 21.0833 11.5C21.0833 16.7927 16.7927 21.0834 11.5 21.0834Z" stroke="black" stroke-width="1.67773" stroke-linecap="round" stroke-linejoin="round"/>
</svg>
