<svg width="25" height="25" viewBox="0 0 25 25" fill="none" xmlns="http://www.w3.org/2000/svg">
<path d="M12.5 24.135C18.9156 24.135 24.135 18.9156 24.135 12.5C24.135 6.08444 18.9156 0.865 12.5 0.865C6.08444 0.865 0.865 6.08444 0.865 12.5C0.865 18.9156 6.08444 24.135 12.5 24.135ZM12.5 1.71C18.4495 1.71 23.29 6.55054 23.29 12.5C23.29 18.4495 18.4495 23.29 12.5 23.29C6.55054 23.29 1.71 18.4495 1.71 12.5C1.71 6.55054 6.55054 1.71 12.5 1.71Z" fill="black" stroke="black" stroke-width="0.27"/>
<path d="M9.5601 10.177L9.55944 10.1769C9.02808 10.09 8.60013 9.71588 8.44306 9.2015C8.28597 8.68736 8.43218 8.13817 8.82357 7.76974L8.82421 7.76914L8.82422 7.76914L8.86311 7.73301C8.86322 7.73291 8.86332 7.73281 8.86343 7.73271C8.99625 7.60736 9.05949 7.42392 9.0317 7.24245L9.03168 7.24238L9.02356 7.18912L9.5601 10.177ZM9.5601 10.177L9.61071 10.185C9.61083 10.185 9.61095 10.1851 9.61107 10.1851C9.79254 10.215 9.94731 10.3319 10.026 10.4984L10.0484 10.5459L10.0484 10.546M9.5601 10.177L10.0484 10.546M10.0484 10.546C10.2778 11.0324 10.7549 11.3409 11.2926 11.3505L11.2926 11.3506M10.0484 10.546L11.2926 11.3506M11.2926 11.3506H11.295M11.2926 11.3506H11.295M11.295 11.3506L11.3042 11.3507L11.3183 11.3508C11.8456 11.3508 12.322 11.061 12.5644 10.591L12.5644 10.591M11.295 11.3506L12.5644 10.591M12.5644 10.591C12.664 10.3979 12.8521 10.2663 13.067 10.2391L13.0671 10.2391M12.5644 10.591L13.0671 10.2391M13.0671 10.2391C13.6003 10.1711 14.0413 9.81288 14.2165 9.30438C14.3918 8.79629 14.2654 8.24222 13.8877 7.86066C13.8876 7.86056 13.8876 7.86046 13.8875 7.86037L13.8507 7.82278L13.8501 7.82213M13.0671 10.2391L13.8501 7.82213M13.8501 7.82213C13.7209 7.69182 13.664 7.50606 13.6981 7.32501L13.8501 7.82213ZM13.1745 5.89119L13.1746 5.89123C13.6039 6.215 13.8085 6.74525 13.708 7.27335C13.708 7.27336 13.708 7.27337 13.708 7.27338L13.6982 7.32482L13.1745 5.89119ZM13.1745 5.89119C12.7452 5.56774 12.1793 5.51702 11.7002 5.75764L11.6521 5.78154L11.6516 5.78178M13.1745 5.89119L11.6516 5.78178M11.6516 5.78178C11.4869 5.86447 11.2925 5.86111 11.1321 5.7729L11.0859 5.74743L11.0857 5.74731M11.6516 5.78178L11.0857 5.74731M11.0857 5.74731C10.6141 5.48841 10.0465 5.5195 9.6063 5.82776L11.0857 5.74731ZM9.44093 8.34962L9.44093 8.34962L9.40198 8.38581C9.40187 8.3859 9.40176 8.386 9.40166 8.3861C9.24364 8.53504 9.18745 8.74595 9.25128 8.9547L9.25132 8.95483C9.31494 9.16364 9.47936 9.30748 9.69504 9.34272C9.69505 9.34272 9.69507 9.34273 9.69508 9.34273L9.7467 9.35114L9.74682 9.35116C10.2033 9.426 10.5929 9.71984 10.7899 10.1374L10.7899 10.1375L10.8123 10.1851C10.9058 10.3832 11.0894 10.5017 11.3078 10.5056L11.3078 10.5056L11.3162 10.5058C11.3187 10.5059 11.3188 10.5058 11.3186 10.5058C11.5321 10.5058 11.715 10.3944 11.8135 10.2036L11.9334 10.2655L11.8135 10.2036C12.0408 9.76315 12.4695 9.46334 12.9605 9.40073L12.9606 9.40072C13.1771 9.37322 13.3465 9.23545 13.4177 9.02907C13.4888 8.82233 13.4403 8.6096 13.2867 8.45476L13.2863 8.4544L13.2489 8.41643L9.44093 8.34962ZM9.44093 8.34962L9.44159 8.349M9.44093 8.34962L9.44159 8.349M9.44159 8.349C9.77765 8.03251 9.93673 7.57095 9.86714 7.11544C9.86714 7.11544 9.86713 7.11543 9.86713 7.11542L9.85899 7.0621L9.85897 7.06196M9.44159 8.349L9.85897 7.06196M9.85897 7.06196C9.82579 6.84607 9.91158 6.64535 10.0907 6.52012L10.0908 6.52004M9.85897 7.06196L10.0908 6.52004M10.0908 6.52004C10.1897 6.45075 10.2995 6.41702 10.4089 6.41702C10.4992 6.41702 10.5915 6.44015 10.6792 6.48826L10.7253 6.51366L10.7255 6.5138M10.0908 6.52004L10.7255 6.5138M10.7255 6.5138C11.1308 6.73617 11.6189 6.74466 12.0302 6.53733L12.0781 6.51353L12.0786 6.51324M10.7255 6.5138L12.0786 6.51324M12.0786 6.51324C12.2745 6.41474 12.4915 6.43452 12.6659 6.56587L12.7471 6.45806L12.6658 6.5658C12.8401 6.6974 12.9188 6.90106 12.8778 7.11619L12.8778 7.1162M12.0786 6.51324L12.8778 7.1162M12.8778 7.1162L12.868 7.16786L12.868 7.16794M12.8778 7.1162L12.868 7.16794M12.868 7.16794C12.782 7.62162 12.9244 8.08843 13.2487 8.41622L12.868 7.16794ZM9.60627 5.82778C9.16589 6.13598 8.94222 6.65837 9.02354 7.18903L9.60627 5.82778Z" fill="black" stroke="black" stroke-width="0.27"/>
<path d="M8.64375 17.5721L8.64374 17.5721C8.35291 17.0367 7.93877 16.6796 7.48638 16.5495C7.09477 16.437 6.73373 16.2456 6.41367 15.9808C5.4117 15.1521 5.08196 13.6946 5.62778 12.5117L5.62778 12.5117C5.98038 11.7477 6.64047 11.1696 7.4396 10.9261C8.2385 10.6818 9.10662 10.7916 9.82028 11.226L9.82054 11.2262C9.89543 11.272 9.96829 11.321 10.038 11.3725C10.7525 11.8993 11.4922 12.2105 12.2373 12.3037L8.64375 17.5721ZM8.64375 17.5721C8.96423 18.162 9.44461 18.6484 10.0326 18.9792L10.0327 18.9792M8.64375 17.5721L10.0327 18.9792M10.0327 18.9792C10.5706 19.2815 11.1647 19.4247 11.7553 19.4247C12.9402 19.4247 14.116 18.8465 14.7902 17.8057C15.3212 16.986 15.4947 16.0098 15.2774 15.0591C15.0604 14.1083 14.4815 13.3047 13.6488 12.7972L13.6165 12.7775M10.0327 18.9792L13.6165 12.7775M13.6165 12.7775H13.6158M13.6165 12.7775H13.6158M13.6158 12.7775C13.1904 12.5244 12.7267 12.3649 12.2373 12.3038L13.6158 12.7775ZM6.39515 12.8657L6.39517 12.8657C6.65102 12.3109 7.10893 11.91 7.68594 11.7344L7.68612 11.7343C7.88505 11.6735 8.09016 11.6437 8.29462 11.6437C8.67423 11.6437 9.0508 11.7468 9.38083 11.9479L9.38096 11.948C9.43441 11.9805 9.48613 12.0156 9.53642 12.0526C10.3625 12.6617 11.236 13.03 12.1324 13.1422C12.5052 13.1888 12.8587 13.3103 13.1841 13.5039L13.2091 13.5191C13.8461 13.907 14.2878 14.52 14.4538 15.2473L14.4538 15.2473C14.6197 15.9739 14.4874 16.7188 14.0812 17.3462C13.3122 18.5329 11.6801 18.936 10.4469 18.2424L10.4468 18.2424C9.99717 17.9897 9.63077 17.6184 9.38636 17.1687L9.38635 17.1686C8.99429 16.4474 8.40495 15.9343 7.71984 15.7375C7.44111 15.6574 7.18305 15.5206 6.95247 15.3297L6.95243 15.3297C6.2429 14.7428 6.00772 13.7051 6.39515 12.8657Z" fill="black" stroke="black" stroke-width="0.27"/>
<path d="M11.7522 17.3798L11.7521 17.38C11.6745 17.5175 11.5312 17.5949 11.3838 17.5949C11.3138 17.5949 11.2423 17.5775 11.1765 17.5404M11.7522 17.3798L11.6803 16.0608M11.7522 17.3798L13.1279 14.9376C13.2425 14.7343 13.1705 14.4766 12.9676 14.3621C12.763 14.2459 12.5058 14.3205 12.3918 14.5225L12.3918 14.5225L11.9111 15.3759L8.7637 13.6029L8.69724 13.7204L8.7635 13.6028L8.76359 13.6028C8.55926 13.4873 8.30215 13.5606 8.18798 13.7633L11.7522 17.3798ZM11.1765 17.5404C11.1765 17.5403 11.1764 17.5403 11.1764 17.5403L11.2429 17.4228L11.1767 17.5404C11.1766 17.5404 11.1766 17.5404 11.1765 17.5404ZM11.1765 17.5404C10.9735 17.426 10.9014 17.1682 11.0161 16.9648M11.0161 16.9648L11.1337 17.0311L11.0161 16.9649L11.0161 16.9648ZM11.0161 16.9648L11.4964 16.1121M11.4964 16.1121L11.614 16.1784L11.6803 16.0608M11.4964 16.1121L8.34856 14.3389L11.6803 16.0608M11.4964 16.1121L11.5627 15.9945L11.6803 16.0608M8.18794 13.7634C8.07332 13.9668 8.14544 14.2245 8.34853 14.3389L8.18794 13.7634Z" fill="black" stroke="black" stroke-width="0.27"/>
<path d="M17.2765 13.0543C16.5091 13.0543 15.8848 13.6782 15.8848 14.4457C15.8848 15.2132 16.509 15.8374 17.2765 15.8374C18.044 15.8374 18.6679 15.2131 18.6679 14.4457C18.6679 13.6782 18.044 13.0543 17.2765 13.0543ZM17.2765 14.9924C16.9751 14.9924 16.7298 14.7471 16.7298 14.4457C16.7298 14.1446 16.9751 13.8993 17.2765 13.8993C17.5776 13.8993 17.8229 14.1446 17.8229 14.4457C17.8229 14.7471 17.5776 14.9924 17.2765 14.9924Z" fill="black" stroke="black" stroke-width="0.27"/>
<path d="M18.2453 12.612C19.0128 12.612 19.637 11.9881 19.637 11.2206C19.637 10.4531 19.0128 9.8289 18.2453 9.8289C17.4778 9.8289 16.8539 10.4531 16.8539 11.2206C16.8539 11.9881 17.4779 12.612 18.2453 12.612ZM18.2453 10.6739C18.5467 10.6739 18.792 10.9192 18.792 11.2206C18.792 11.5217 18.5467 11.767 18.2453 11.767C17.9442 11.767 17.6989 11.5217 17.6989 11.2206C17.6989 10.9192 17.9443 10.6739 18.2453 10.6739Z" fill="black" stroke="black" stroke-width="0.27"/>
<path d="M15.1146 12.7816C15.8821 12.7816 16.506 12.1573 16.506 11.3899C16.506 10.6224 15.8821 9.99818 15.1146 9.99818C14.3472 9.99818 13.7229 10.6224 13.7229 11.3899C13.7229 12.1573 14.3472 12.7816 15.1146 12.7816ZM15.1146 10.8432C15.4157 10.8432 15.661 11.0885 15.661 11.3899C15.661 11.6913 15.4157 11.9366 15.1146 11.9366C14.8132 11.9366 14.5679 11.6912 14.5679 11.3899C14.5679 11.0885 14.8132 10.8432 15.1146 10.8432Z" fill="black" stroke="black" stroke-width="0.27"/>
<path d="M16.0835 9.68951C16.8509 9.68951 17.4752 9.06562 17.4752 8.2981C17.4752 7.53062 16.8509 6.90641 16.0835 6.90641C15.3159 6.90641 14.6921 7.53066 14.6921 8.2981C14.6921 9.06558 15.316 9.68951 16.0835 9.68951ZM16.0835 7.75141C16.3848 7.75141 16.6302 7.99672 16.6302 8.2981C16.6302 8.59917 16.3849 8.84451 16.0835 8.84451C15.7824 8.84451 15.5371 8.5992 15.5371 8.2981C15.5371 7.99668 15.7824 7.75141 16.0835 7.75141Z" fill="black" stroke="black" stroke-width="0.27"/>
</svg>
