<svg width="23" height="23" viewBox="0 0 23 23" fill="none" xmlns="http://www.w3.org/2000/svg">
<path d="M11.5 1.91666C6.20712 1.91666 1.91666 6.20712 1.91666 11.5C1.91666 16.7929 6.20712 21.0833 11.5 21.0833C16.7929 21.0833 21.0833 16.7929 21.0833 11.5C21.0833 6.20712 16.7929 1.91666 11.5 1.91666ZM9.65424 3.56499C10.8686 3.28338 12.1314 3.28338 13.3457 3.56499L11.5019 4.66995L9.65424 3.56403V3.56499ZM7.90049 4.19078L10.7832 5.91578V8.01741L8.10845 9.96091L6.14961 9.28337L5.58707 5.89661C6.25135 5.19577 7.03461 4.61822 7.90049 4.19078ZM4.39874 7.50853L4.74182 9.57566L3.37332 10.9442C3.4541 9.73671 3.80449 8.56272 4.39874 7.50853ZM3.47107 12.879L5.70111 10.649L7.65612 11.3246L8.69207 14.5187L7.76249 16.0281L4.6067 15.8422C4.03606 14.9391 3.64977 13.9321 3.47011 12.879H3.47107ZM5.83816 17.3544L7.66282 17.4618L8.3097 18.997C7.39199 18.6054 6.55394 18.0486 5.8372 17.3544H5.83816ZM10.0922 19.5241L8.95753 16.8322L9.88041 15.3304H13.1119L13.9859 16.8456L12.9892 19.5097C12.0321 19.6865 11.0511 19.6914 10.0922 19.5241ZM14.7209 18.9846L15.2643 17.5308L16.8647 17.6314C16.2248 18.1916 15.5011 18.6482 14.72 18.9846H14.7209ZM18.1058 16.2687L15.2078 16.0866L14.3089 14.5302L15.3506 11.3246L17.2797 10.6576L19.4954 13.0726C19.2694 14.2261 18.7952 15.3167 18.1058 16.2687ZM19.6372 11.1023L18.2572 9.5977L18.6041 7.51045C19.2238 8.61079 19.5776 9.84083 19.6372 11.1023ZM17.4158 5.89853L16.8513 9.28528L14.8963 9.96091L12.2216 8.01741V5.91482L15.0985 4.18982C15.9661 4.61806 16.7506 5.19694 17.4158 5.89949V5.89853ZM9.07349 11.0371L11.5029 9.27187L13.9322 11.0371L13.0046 13.8929H10.0012L9.07349 11.0371Z" fill="black"/>
</svg>
