<svg width="33" height="28" viewBox="0 0 33 28" fill="none" xmlns="http://www.w3.org/2000/svg">
<path d="M16.501 9.68312C16.4606 9.68312 16.4203 9.67987 16.3815 9.66847L1.36488 5.81599C1.15177 5.76065 1 5.56534 1 5.34237C1 5.11777 1.14854 4.92246 1.36488 4.86875L16.3815 1.01465C16.4606 0.995117 16.543 0.995117 16.6205 1.01465L31.6338 4.86875C31.8469 4.92409 31.9987 5.1194 31.9987 5.34237C31.9987 5.56698 31.8501 5.76228 31.6338 5.81599L16.6205 9.66847C16.5801 9.67987 16.5397 9.68312 16.501 9.68312ZM3.44761 5.34235L16.501 8.69193L29.5527 5.34235L16.501 1.99278L3.44761 5.34235Z" stroke="white" stroke-width="1.2"/>
<path d="M16.501 26.4329C16.4526 26.4329 16.4041 26.4247 16.3557 26.4101L1.33905 21.6835C1.13723 21.62 1 21.4312 1 21.218V5.34242C1 5.19268 1.06781 5.04945 1.18728 4.9583C1.30353 4.86716 1.46014 4.83461 1.60382 4.87041L16.6205 8.7229C16.8336 8.77823 16.9853 8.97354 16.9853 9.19651V25.9442C16.9853 26.0988 16.9127 26.2453 16.7868 26.3364C16.7028 26.3999 16.6027 26.4324 16.501 26.4324L16.501 26.4329ZM1.96876 20.8617L16.0166 25.2821V9.57605L1.96876 5.97098V20.8617Z" stroke="white" stroke-width="1.2"/>
<path d="M16.5009 26.4329C16.3975 26.4329 16.299 26.4003 16.2135 26.3368C16.0875 26.2457 16.0149 26.0992 16.0149 25.9446L16.0165 9.19528C16.0165 8.97067 16.165 8.77537 16.3814 8.72166L31.3947 4.86756C31.54 4.83175 31.6934 4.8643 31.8129 4.95545C31.9291 5.04659 32.0001 5.18982 32.0001 5.33956V21.2164C32.0001 21.4296 31.8629 21.62 31.6611 21.6819L16.6445 26.4131C16.5976 26.4277 16.5493 26.4329 16.5009 26.4329ZM16.9852 9.57606V25.2821L31.0297 20.8617V5.97111L16.9852 9.57606Z" stroke="white" stroke-width="1.2"/>
<path d="M24.0061 7.75943C23.9657 7.75943 23.9253 7.75618 23.8866 7.74478L8.87162 3.89068C8.61329 3.82394 8.45508 3.55865 8.52288 3.2966C8.58908 3.03619 8.85225 2.87669 9.11219 2.94504L24.1255 6.79915C24.3838 6.86589 24.5421 7.13118 24.4743 7.39323C24.4194 7.61295 24.2224 7.75943 24.0061 7.75943Z" stroke="white" stroke-width="1.2"/>
<path d="M11.0323 20.9412C10.959 20.9412 10.8858 20.9284 10.8097 20.9061L4.62265 18.9857C4.25639 18.8707 4 18.4937 4 18.0623V13.9597C4 13.6593 4.12397 13.3814 4.33246 13.196C4.54095 13.0139 4.81424 12.9564 5.06779 13.0331L11.2548 14.9534C11.6211 15.0685 11.8775 15.4455 11.8775 15.8768V19.9795C11.8775 20.2798 11.7535 20.5578 11.545 20.7431C11.3985 20.8741 11.2154 20.9412 11.0323 20.9412Z" stroke="white" stroke-width="1.2"/>
<path d="M20.4841 21.2771C20.2726 21.2771 20.0772 21.1339 20.0175 20.9174C19.9465 20.657 20.0982 20.3884 20.3565 20.3168L23.902 19.337C24.1603 19.2654 24.4267 19.4184 24.4978 19.6788C24.5688 19.9392 24.417 20.2077 24.1587 20.2794L20.6132 21.2592C20.5713 21.2706 20.5261 21.2771 20.4841 21.2771Z" stroke="white" stroke-width="1.2"/>
<path d="M20.4841 17.9561C20.2726 17.9561 20.0772 17.8128 20.0175 17.5964C19.9465 17.336 20.0982 17.0674 20.3565 16.9958L23.902 16.0176C24.1603 15.946 24.4267 16.099 24.4978 16.3594C24.5688 16.6198 24.417 16.8883 24.1587 16.96L20.6132 17.9382C20.5713 17.9496 20.5261 17.9561 20.4841 17.9561Z" stroke="white" stroke-width="1.2"/>
</svg>
