<svg width="23" height="23" viewBox="0 0 23 23" fill="none" xmlns="http://www.w3.org/2000/svg">
<path d="M4.76288 21.0827C1.88788 21.0827 1.88788 19.7889 1.88788 18.2077V17.2493C1.88788 16.7223 2.31913 16.291 2.84621 16.291H20.0962C20.6233 16.291 21.0545 16.7223 21.0545 17.2493V18.2077C21.0545 19.7889 21.0545 21.0827 18.1795 21.0827H4.76288Z" stroke="white" stroke-width="1.5" stroke-linecap="round" stroke-linejoin="round"/>
<path d="M19.8567 16.291H3.13379V12.4577C3.13379 8.77768 5.73087 5.70143 9.19046 4.96352C9.70796 4.84852 10.2446 4.79102 10.8005 4.79102H12.19C12.7459 4.79102 13.2921 4.84852 13.8096 4.96352C17.2692 5.71102 19.8567 8.77768 19.8567 12.4577V16.291Z" stroke="white" stroke-width="1.5" stroke-linecap="round" stroke-linejoin="round"/>
<path d="M13.8096 4.96352C13.2921 4.84852 12.7459 4.79102 12.19 4.79102H10.8004C10.2446 4.79102 9.70794 4.84852 9.19044 4.96352C9.13294 4.75268 9.10419 4.54185 9.10419 4.31185C9.10419 2.98935 10.1775 1.91602 11.5 1.91602C12.8225 1.91602 13.8959 2.98935 13.8959 4.31185C13.8959 4.54185 13.8671 4.75268 13.8096 4.96352Z" stroke="white" stroke-width="1.5" stroke-linecap="round" stroke-linejoin="round"/>
<path d="M14.375 10.541H8.625" stroke="white" stroke-width="1.5" stroke-linecap="round" stroke-linejoin="round"/>
</svg>
