<svg width="23" height="23" viewBox="0 0 23 23" fill="none" xmlns="http://www.w3.org/2000/svg">
<path d="M7.16797 17.5854L10.1388 19.8854C10.5221 20.2687 11.3846 20.4604 11.9596 20.4604H15.6013C16.7513 20.4604 17.9971 19.5979 18.2846 18.4479L20.5846 11.452C21.0638 10.1104 20.2013 8.96037 18.7638 8.96037H14.9305C14.3555 8.96037 13.8763 8.4812 13.9721 7.81037L14.4513 4.7437C14.643 3.8812 14.068 2.92287 13.2055 2.63537C12.4388 2.34787 11.4805 2.7312 11.0971 3.3062L7.16797 9.15203" stroke="#14C25A" stroke-width="1.4375"/>
<path d="M2.28125 8.19376C2.28125 6.85209 2.85625 6.37292 4.19792 6.37292H5.15625C6.49792 6.37292 7.07292 6.85209 7.07292 8.19376V17.5854C7.07292 18.9271 6.49792 19.4063 5.15625 19.4063H4.19792C2.85625 19.4063 2.28125 18.9271 2.28125 17.5854V8.19376Z" stroke="#14C25A" stroke-width="1.4375" stroke-linecap="round" stroke-linejoin="round"/>
</svg>