<svg width="23" height="23" viewBox="0 0 23 23" fill="none" xmlns="http://www.w3.org/2000/svg">
<path d="M9.24765 13.225L10.7906 14.4229C10.9918 14.6241 11.4422 14.7199 11.7393 14.7199H13.6368C14.231 14.7199 14.8827 14.2695 15.036 13.6754L16.2339 10.0432C16.4831 9.34365 16.0327 8.74951 15.2852 8.74951H13.2918C12.9947 8.74951 12.7456 8.50035 12.7935 8.15535L13.0427 6.56448C13.1385 6.11406 12.8414 5.61572 12.391 5.47197C11.9885 5.31863 11.4901 5.51987 11.2985 5.81695L9.25724 8.85491" stroke="#292D32" stroke-width="1.4375"/>
<path d="M6.70816 8.347C6.70816 7.64741 7.00524 7.39825 7.70482 7.39825H8.20316C8.90274 7.39825 9.19983 7.64741 9.19983 8.347V13.225C9.19983 13.9246 8.90274 14.1737 8.20316 14.1737H7.70482C7.00524 14.1737 6.70816 13.9246 6.70816 13.225V8.347Z" stroke="#292D32" stroke-width="1.4375" stroke-linecap="round" stroke-linejoin="round"/>
<path d="M16.5217 18.0742C15.755 18.0742 15.0267 18.3712 14.49 18.9079L12.8513 20.5276C12.1038 21.2655 10.8867 21.2655 10.1392 20.5276L8.50041 18.9079C7.96375 18.3712 7.22583 18.0742 6.46875 18.0742H5.75C4.15917 18.0742 2.875 16.7996 2.875 15.2279V4.77249C2.875 3.20082 4.15917 1.92627 5.75 1.92627H17.25C18.8408 1.92627 20.125 3.20082 20.125 4.77249V15.2279C20.125 16.79 18.8408 18.0742 17.25 18.0742H16.5217Z" stroke="#292D32" stroke-width="1.4375" stroke-linecap="round" stroke-linejoin="round"/>
</svg>
