<svg width="23" height="23" viewBox="0 0 23 23" fill="none" xmlns="http://www.w3.org/2000/svg">
<path d="M7.1683 17.5854L10.1391 19.8854C10.5225 20.2687 11.385 20.4604 11.96 20.4604H15.6016C16.7516 20.4604 17.9975 19.5979 18.285 18.4479L20.585 11.452C21.0641 10.1104 20.2016 8.96038 18.7641 8.96038H14.9308C14.3558 8.96038 13.8766 8.48121 13.9725 7.81038L14.4516 4.74371C14.6433 3.88121 14.0683 2.92288 13.2058 2.63538C12.4391 2.34788 11.4808 2.73121 11.0975 3.30621L7.1683 9.15205" stroke="#292D32" stroke-width="1.4375"/>
<path d="M2.28082 8.19377C2.28082 6.85211 2.85582 6.37294 4.19749 6.37294H5.15582C6.49749 6.37294 7.07249 6.85211 7.07249 8.19377V17.5854C7.07249 18.9271 6.49749 19.4063 5.15582 19.4063H4.19749C2.85582 19.4063 2.28082 18.9271 2.28082 17.5854V8.19377Z" stroke="#292D32" stroke-width="1.4375" stroke-linecap="round" stroke-linejoin="round"/>
</svg>
