<svg width="23" height="23" viewBox="0 0 23 23" fill="none" xmlns="http://www.w3.org/2000/svg">
<path d="M4.76288 21.0834C1.88788 21.0834 1.88788 19.7896 1.88788 18.2084V17.25C1.88788 16.7229 2.31913 16.2917 2.84621 16.2917H20.0962C20.6233 16.2917 21.0545 16.7229 21.0545 17.25V18.2084C21.0545 19.7896 21.0545 21.0834 18.1795 21.0834H4.76288Z" stroke="black" stroke-width="1.5" stroke-linecap="round" stroke-linejoin="round"/>
<path d="M19.8567 16.2917H3.13376V12.4584C3.13376 8.77835 5.73084 5.7021 9.19043 4.96419C9.70793 4.84919 10.2446 4.79169 10.8004 4.79169H12.19C12.7458 4.79169 13.2921 4.84919 13.8096 4.96419C17.2692 5.71169 19.8567 8.77835 19.8567 12.4584V16.2917Z" stroke="black" stroke-width="1.5" stroke-linecap="round" stroke-linejoin="round"/>
<path d="M13.8096 4.96419C13.2921 4.84919 12.7458 4.79169 12.19 4.79169H10.8004C10.2446 4.79169 9.70791 4.84919 9.19041 4.96419C9.13291 4.75335 9.10416 4.54252 9.10416 4.31252C9.10416 2.99002 10.1775 1.91669 11.5 1.91669C12.8225 1.91669 13.8958 2.99002 13.8958 4.31252C13.8958 4.54252 13.8671 4.75335 13.8096 4.96419Z" stroke="black" stroke-width="1.5" stroke-linecap="round" stroke-linejoin="round"/>
<path d="M14.375 10.5417H8.625" stroke="black" stroke-width="1.5" stroke-linecap="round" stroke-linejoin="round"/>
</svg>
