<svg width="23" height="23" viewBox="0 0 23 23" fill="none" xmlns="http://www.w3.org/2000/svg">
<path d="M17.0681 6.86175C15.7456 6.81383 14.6914 5.73092 14.6914 4.38925C14.6914 3.01883 15.7935 1.91675 17.1639 1.91675C18.5343 1.91675 19.6364 3.02842 19.6364 4.38925C19.6268 5.73092 18.5727 6.81383 17.2502 6.86175C17.1927 6.85217 17.1256 6.85217 17.0681 6.86175Z" stroke="#6353EA" stroke-width="1.67773" stroke-linecap="round" stroke-linejoin="round"/>
<path d="M16.2631 13.8384C17.576 14.0589 19.0231 13.8289 20.039 13.1484C21.3902 12.2476 21.3902 10.7718 20.039 9.87095C19.0135 9.19053 17.5473 8.96053 16.2344 9.19053" stroke="#6353EA" stroke-width="1.67773" stroke-linecap="round" stroke-linejoin="round"/>
<path d="M5.90329 6.86175C7.22579 6.81383 8.27996 5.73092 8.27996 4.38925C8.27996 3.01883 7.17788 1.91675 5.80746 1.91675C4.43705 1.91675 3.33496 3.02842 3.33496 4.38925C3.34454 5.73092 4.39871 6.81383 5.72121 6.86175C5.77871 6.85217 5.84579 6.85217 5.90329 6.86175Z" stroke="#6353EA" stroke-width="1.67773" stroke-linecap="round" stroke-linejoin="round"/>
<path d="M6.70822 13.8384C5.3953 14.0589 3.94822 13.8289 2.93238 13.1484C1.58113 12.2476 1.58113 10.7718 2.93238 9.87095C3.9578 9.19053 5.42405 8.96053 6.73696 9.19053" stroke="#6353EA" stroke-width="1.67773" stroke-linecap="round" stroke-linejoin="round"/>
<path d="M11.3181 14.0204C9.99557 13.9725 8.94141 12.8896 8.94141 11.5479C8.94141 10.1775 10.0435 9.07544 11.4139 9.07544C12.7843 9.07544 13.8864 10.1871 13.8864 11.5479C13.8768 12.8896 12.8227 13.9821 11.5002 14.0204C11.4427 14.0109 11.3756 14.0109 11.3181 14.0204Z" stroke="#6353EA" stroke-width="1.67773" stroke-linecap="round" stroke-linejoin="round"/>
<path d="M8.71168 20.3167C10.245 21.3421 12.7558 21.3421 14.2892 20.3167C15.6404 19.4159 15.6404 17.9401 14.2892 17.0392C12.7654 16.0234 10.245 16.0234 8.71168 17.0392C7.36043 17.9401 7.36043 19.4159 8.71168 20.3167Z" stroke="#6353EA" stroke-width="1.67773" stroke-linecap="round" stroke-linejoin="round"/>
</svg>
