<svg width="23" height="23" viewBox="0 0 23 23" fill="none" xmlns="http://www.w3.org/2000/svg">
<path d="M17.0679 6.86169C15.7454 6.81377 14.6912 5.73086 14.6912 4.38919C14.6912 3.01877 15.7933 1.91669 17.1637 1.91669C18.5341 1.91669 19.6362 3.02836 19.6362 4.38919C19.6266 5.73086 18.5725 6.81377 17.25 6.86169C17.1925 6.85211 17.1254 6.85211 17.0679 6.86169Z" stroke="black" stroke-width="1.67773" stroke-linecap="round" stroke-linejoin="round"/>
<path d="M16.2629 13.8384C17.5758 14.0588 19.0229 13.8288 20.0387 13.1484C21.39 12.2476 21.39 10.7717 20.0387 9.87089C19.0133 9.19047 17.547 8.96046 16.2341 9.19046" stroke="black" stroke-width="1.67773" stroke-linecap="round" stroke-linejoin="round"/>
<path d="M5.90333 6.86169C7.22582 6.81377 8.27999 5.73086 8.27999 4.38919C8.27999 3.01877 7.17791 1.91669 5.80749 1.91669C4.43708 1.91669 3.33499 3.02836 3.33499 4.38919C3.34457 5.73086 4.39874 6.81377 5.72124 6.86169C5.77874 6.85211 5.84583 6.85211 5.90333 6.86169Z" stroke="black" stroke-width="1.67773" stroke-linecap="round" stroke-linejoin="round"/>
<path d="M6.70831 13.8384C5.39539 14.0588 3.94831 13.8288 2.93247 13.1484C1.58122 12.2476 1.58122 10.7717 2.93247 9.87089C3.95789 9.19047 5.42414 8.96046 6.73706 9.19046" stroke="black" stroke-width="1.67773" stroke-linecap="round" stroke-linejoin="round"/>
<path d="M11.3179 14.0204C9.99536 13.9725 8.94119 12.8896 8.94119 11.5479C8.94119 10.1775 10.0433 9.07544 11.4137 9.07544C12.7841 9.07544 13.8862 10.1871 13.8862 11.5479C13.8766 12.8896 12.8224 13.9821 11.4999 14.0204C11.4424 14.0109 11.3754 14.0109 11.3179 14.0204Z" stroke="black" stroke-width="1.67773" stroke-linecap="round" stroke-linejoin="round"/>
<path d="M8.71122 20.3167C10.2446 21.3421 12.7554 21.3421 14.2887 20.3167C15.64 19.4159 15.64 17.9401 14.2887 17.0392C12.765 16.0234 10.2446 16.0234 8.71122 17.0392C7.35997 17.9401 7.35997 19.4159 8.71122 20.3167Z" stroke="black" stroke-width="1.67773" stroke-linecap="round" stroke-linejoin="round"/>
</svg>
