<svg width="19" height="14" viewBox="0 0 19 14" fill="none" xmlns="http://www.w3.org/2000/svg">
<path d="M10.9357 3.40556L6.67858 0.105326C6.36613 -0.148538 5.89746 0.0857983 5.89746 0.495886V2.5268H0.4882C0.214808 2.5268 0 2.74161 0 3.015V4.55771C0 4.8311 0.214808 5.04591 0.4882 5.04591H5.89746V7.07682C5.89746 7.48691 6.36613 7.70172 6.67858 7.46738L10.9357 4.16715C11.1895 3.97187 11.1895 3.60084 10.9357 3.40556Z" fill="#873CFC"/>
<path d="M18.0637 8.67842H12.6544V6.62798C12.6544 6.21789 12.1857 6.00308 11.8733 6.23742L7.61618 9.55718C7.36232 9.75246 7.36232 10.1235 7.61618 10.3188L11.8733 13.619C12.1857 13.8729 12.6544 13.6385 12.6544 13.2284V11.1975H18.0637C18.3371 11.1975 18.5519 10.9827 18.5519 10.7093V9.16662C18.5519 8.89322 18.3371 8.67842 18.0637 8.67842Z" fill="#873CFC"/>
</svg>
