<svg width="23" height="23" viewBox="0 0 23 23" fill="none" xmlns="http://www.w3.org/2000/svg">
<path d="M21.0833 8.06919C21.0833 9.58335 20.125 10.5417 18.6108 10.5417H15.3333V3.84294C15.3333 2.77919 16.2054 1.91669 17.2692 1.91669C18.3138 1.92627 19.2721 2.34794 19.9621 3.03794C20.6521 3.73752 21.0833 4.69585 21.0833 5.75002V8.06919Z" stroke="#292D32" stroke-width="1.5" stroke-linecap="round" stroke-linejoin="round"/>
<path d="M1.91666 20.125C1.91666 20.9204 2.81749 21.3709 3.44999 20.8917L5.08874 19.665C5.47207 19.3775 6.00874 19.4159 6.35374 19.7609L7.94457 21.3613C8.31832 21.735 8.93166 21.735 9.30541 21.3613L10.9154 19.7513C11.2508 19.4159 11.7875 19.3775 12.1612 19.665L13.8 20.8917C14.4325 21.3613 15.3333 20.9109 15.3333 20.125V3.83335C15.3333 2.77919 16.1958 1.91669 17.25 1.91669H6.70832H5.74999C2.87499 1.91669 1.91666 3.6321 1.91666 5.75002V6.70835V20.125Z" stroke="#292D32" stroke-width="1.5" stroke-linecap="round" stroke-linejoin="round"/>
<path d="M8.625 12.4679H11.5" stroke="#292D32" stroke-width="1.5" stroke-linecap="round" stroke-linejoin="round"/>
<path d="M8.625 8.63458H11.5" stroke="#292D32" stroke-width="1.5" stroke-linecap="round" stroke-linejoin="round"/>
<path d="M5.74579 12.4583H5.7544" stroke="#292D32" stroke-width="2" stroke-linecap="round" stroke-linejoin="round"/>
<path d="M5.74579 8.625H5.7544" stroke="#292D32" stroke-width="2" stroke-linecap="round" stroke-linejoin="round"/>
</svg>
