<svg width="23" height="23" viewBox="0 0 23 23" fill="none" xmlns="http://www.w3.org/2000/svg">
<g clip-path="url(#clip0_1:4869)">
<path d="M8.30148 22.6901L8.34918 22.7051C8.28476 22.9103 8.09439 23.05 7.87947 23.05H2.28972C2.13007 23.05 1.98009 22.9723 1.88779 22.8418C1.79547 22.7113 1.7724 22.5442 1.82576 22.3935L3.82173 16.7542L8.30148 22.6901ZM8.30148 22.6901L8.34918 22.705L10.1184 17.0657M8.30148 22.6901L10.1184 17.0657M21.0948 9.86132H22.5577C22.8298 9.86132 23.05 10.0818 23.05 10.3536V12.3846C23.05 12.6565 22.8298 12.8769 22.5577 12.8769H18.2204C16.9733 14.5769 14.9975 15.5861 12.8779 15.5861H10.0014L9.64518 16.426H9.6487C9.80544 16.426 9.95258 16.5005 10.0454 16.6269M21.0948 9.86132L10.0051 16.6565M21.0948 9.86132C20.1269 5.93628 16.8393 3.01474 12.891 2.4502C13.0251 2.20935 13.1054 1.93402 13.1054 1.63835C13.1054 0.707329 12.3479 -0.05 11.4171 -0.05C10.4863 -0.05 9.72871 0.707329 9.72871 1.63835C9.72871 1.94252 9.81249 2.22607 9.95387 2.47205C6.07449 3.09005 2.8604 5.98766 1.90524 9.86132H0.442308C0.170199 9.86132 -0.05 10.0818 -0.05 10.3536V12.3846C-0.05 12.6565 0.170199 12.8769 0.442308 12.8769H6.00811L4.53657 16.426H4.28572C4.07713 16.426 3.89105 16.5574 3.82176 16.7541L21.0948 9.86132ZM10.0454 16.6269L10.0051 16.6565M10.0454 16.6269C10.0454 16.6269 10.0453 16.6269 10.0453 16.6269L10.0051 16.6565M10.0454 16.6269C10.1381 16.7531 10.1655 16.916 10.1184 17.0656M10.0051 16.6565C10.0884 16.7699 10.113 16.9163 10.0707 17.0507L10.1184 17.0656M10.1184 17.0656L10.1184 17.0657M10.1184 17.0656L10.1184 17.0657M9.22215 14.9014L9.22213 14.9014L8.57548 16.426H5.60241L7.07404 12.8769H12.0945L12.0844 12.9082C12.0168 13.1163 11.8243 13.2562 11.6054 13.2562H10.2284C9.95626 13.2562 9.73606 13.4766 9.73606 13.7485C9.73606 14.0203 9.95626 14.2408 10.2284 14.2408H11.6054C12.2525 14.2408 12.8216 13.8273 13.0209 13.2119L13.1295 12.8769H16.9401C15.8862 13.9702 14.4263 14.6014 12.8779 14.6014H9.67548C9.47788 14.6014 9.29953 14.7195 9.22215 14.9014ZM9.62397 16.476H9.56966L9.59086 16.426L9.62397 16.476ZM11.4171 0.934615C11.805 0.934615 12.1208 1.25044 12.1208 1.63835C12.1208 2.02626 11.805 2.34209 11.4171 2.34209C11.0292 2.34209 10.7133 2.02626 10.7133 1.63835C10.7133 1.25044 11.0292 0.934615 11.4171 0.934615ZM11.5 3.3267C15.5155 3.3267 19.0341 6.04059 20.0868 9.86132H2.91318C3.96591 6.04059 7.4845 3.3267 11.5 3.3267ZM8.97848 17.4106L7.51793 22.0654H2.98634L4.63379 17.4106H4.86538H8.90144H8.97848ZM22.0654 11.8923H17.9688H6.74519H0.934615V10.8459H2.28972H20.7103H22.0654V11.8923Z" fill="black" stroke="black" stroke-width="0.1"/>
</g>
<defs>
<clipPath id="clip0_1:4869">
<rect width="23" height="23" fill="white"/>
</clipPath>
</defs>
</svg>
