<svg width="33" height="34" viewBox="0 0 33 34" fill="none" xmlns="http://www.w3.org/2000/svg">
<path d="M22.1715 8.59411C22.5615 9.40749 23.6015 10.1877 24.479 10.3371L29.6627 11.2168C32.9777 11.7812 33.7577 14.2379 31.369 16.6615L27.339 20.7781C26.6565 21.4753 26.2827 22.8199 26.494 23.7826L27.6477 28.8787C28.5577 32.9123 26.4615 34.4727 22.9677 32.3645L18.109 29.4264C17.2315 28.8953 15.7852 28.8953 14.8915 29.4264L10.0327 32.3645C6.55522 34.4727 4.44272 32.8957 5.35272 28.8787L6.50647 23.7826C6.71772 22.8199 6.34397 21.4753 5.66147 20.7781L1.63147 16.6615C-0.741032 14.2379 0.0227188 11.7812 3.33772 11.2168L8.52147 10.3371C9.38272 10.1877 10.4227 9.40749 10.8127 8.59411L13.6727 2.7511C15.2327 -0.419394 17.7677 -0.419394 19.3115 2.7511L22.1715 8.59411Z" fill="#F8CD61"/>
</svg>
