<svg width="11" height="10" viewBox="0 0 11 10" fill="none" xmlns="http://www.w3.org/2000/svg">
<path d="M7.53528 2.4981C7.65471 2.74192 7.97317 2.97579 8.24187 3.02057L9.8292 3.2843C10.8443 3.45348 11.0831 4.18992 10.3517 4.91641L9.11764 6.15045C8.90865 6.35944 8.7942 6.7625 8.85889 7.0511L9.21218 8.57872C9.49084 9.78788 8.84894 10.2556 7.77911 9.62367L6.29129 8.74293C6.02259 8.5837 5.57973 8.5837 5.30605 8.74293L3.81824 9.62367C2.75338 10.2556 2.10651 9.78291 2.38516 8.57872L2.73846 7.0511C2.80314 6.7625 2.6887 6.35944 2.47971 6.15045L1.24567 4.91641C0.519177 4.18992 0.753048 3.45348 1.76814 3.2843L3.35548 3.02057C3.6192 2.97579 3.93766 2.74192 4.05709 2.4981L4.93286 0.746559C5.41055 -0.20385 6.1868 -0.20385 6.65951 0.746559L7.53528 2.4981Z" fill="#FFEB38"/>
</svg>
