<svg width="11" height="10" viewBox="0 0 11 10" fill="none" xmlns="http://www.w3.org/2000/svg">
<path d="M7.47767 2.4981C7.59709 2.74192 7.91555 2.97579 8.18425 3.02057L9.77158 3.2843C10.7867 3.45348 11.0255 4.18992 10.2941 4.91641L9.06002 6.15045C8.85103 6.35944 8.73658 6.7625 8.80127 7.0511L9.15456 8.57872C9.43322 9.78788 8.79132 10.2556 7.72149 9.62367L6.23368 8.74293C5.96497 8.5837 5.52211 8.5837 5.24844 8.74293L3.76062 9.62367C2.69577 10.2556 2.04889 9.78291 2.32755 8.57872L2.68084 7.0511C2.74553 6.7625 2.63108 6.35944 2.42209 6.15045L1.18805 4.91641C0.46156 4.18992 0.69543 3.45348 1.71053 3.2843L3.29786 3.02057C3.56158 2.97579 3.88005 2.74192 3.99947 2.4981L4.87524 0.746559C5.35293 -0.20385 6.12918 -0.20385 6.6019 0.746559L7.47767 2.4981Z" fill="#E0E0E0"/>
</svg>
