<svg xmlns="http://www.w3.org/2000/svg" xmlns:xlink="http://www.w3.org/1999/xlink" version="1.1" width="256" height="256" viewBox="0 0 256 256" xml:space="preserve">

<defs>
</defs>
<g style="stroke: none; stroke-width: 0; stroke-dasharray: none; stroke-linecap: butt; stroke-linejoin: miter; stroke-miterlimit: 10; fill: none; fill-rule: nonzero; opacity: 1;" transform="translate(1.4065934065934016 1.4065934065934016) scale(2.81 2.81)" >
	<path d="M 84.947 15.13 H 5.052 C 2.267 15.13 0 17.396 0 20.182 v 7.553 v 12.53 v 29.552 c 0 2.786 2.267 5.053 5.052 5.053 h 79.895 c 2.786 0 5.053 -2.267 5.053 -5.053 V 40.265 v -12.53 v -7.553 C 90 17.396 87.733 15.13 84.947 15.13 z M 5.052 17.13 h 79.895 c 1.684 0 3.053 1.369 3.053 3.052 v 6.553 H 2 v -6.553 C 2 18.499 3.369 17.13 5.052 17.13 z M 88 39.265 H 2 v -10.53 h 86 V 39.265 z M 84.947 72.87 H 5.052 C 3.369 72.87 2 71.501 2 69.817 V 41.265 h 86 v 28.552 C 88 71.501 86.631 72.87 84.947 72.87 z" style="stroke: none; stroke-width: 1; stroke-dasharray: none; stroke-linecap: butt; stroke-linejoin: miter; stroke-miterlimit: 10; fill: rgb(0,0,0); fill-rule: nonzero; opacity: 1;" transform=" matrix(1 0 0 1 0 0) " stroke-linecap="round" />
	<path d="M 79.336 48.735 h -22.52 c -0.553 0 -1 0.447 -1 1 v 12.529 c 0 0.553 0.447 1 1 1 h 22.52 c 0.553 0 1 -0.447 1 -1 V 49.735 C 80.336 49.183 79.889 48.735 79.336 48.735 z M 78.336 61.265 h -20.52 V 50.735 h 20.52 V 61.265 z" style="stroke: none; stroke-width: 1; stroke-dasharray: none; stroke-linecap: butt; stroke-linejoin: miter; stroke-miterlimit: 10; fill: rgb(0,0,0); fill-rule: nonzero; opacity: 1;" transform=" matrix(1 0 0 1 0 0) " stroke-linecap="round" />
	<path d="M 33.184 48.735 h -22.52 c -0.552 0 -1 0.447 -1 1 s 0.448 1 1 1 h 22.52 c 0.552 0 1 -0.447 1 -1 S 33.736 48.735 33.184 48.735 z" style="stroke: none; stroke-width: 1; stroke-dasharray: none; stroke-linecap: butt; stroke-linejoin: miter; stroke-miterlimit: 10; fill: rgb(0,0,0); fill-rule: nonzero; opacity: 1;" transform=" matrix(1 0 0 1 0 0) " stroke-linecap="round" />
	<path d="M 19.184 56.265 h -8.52 c -0.552 0 -1 0.447 -1 1 s 0.448 1 1 1 h 8.52 c 0.552 0 1 -0.447 1 -1 S 19.736 56.265 19.184 56.265 z" style="stroke: none; stroke-width: 1; stroke-dasharray: none; stroke-linecap: butt; stroke-linejoin: miter; stroke-miterlimit: 10; fill: rgb(0,0,0); fill-rule: nonzero; opacity: 1;" transform=" matrix(1 0 0 1 0 0) " stroke-linecap="round" />
</g>
</svg>