<svg width="40" height="25" viewBox="0 0 40 25" fill="none" xmlns="http://www.w3.org/2000/svg">
<path d="M27.0952 14.1463C27.395 14.4932 27.6718 14.8619 27.9238 15.2491C28.3537 15.9094 28.7079 16.6251 28.9747 17.3827C30.734 18.1117 33.1539 18.2944 35.256 17.9307C37.1273 17.6072 38.7219 16.8564 39.2984 15.6899C39.2802 14.4395 38.9063 13.2781 38.2754 12.306C37.628 11.3088 36.7089 10.5076 35.6266 10.0149C34.8837 10.459 34.0172 10.7154 33.0931 10.7154C32.169 10.7154 31.3025 10.4607 30.5596 10.0149C29.6964 10.4087 28.9354 10.9987 28.3342 11.7278C27.7609 12.4233 27.3324 13.2463 27.0952 14.1463ZM36.0349 2.62855C35.2837 1.86259 34.2426 1.38998 33.0928 1.38998C31.9529 1.38998 30.9217 1.85423 30.1623 2.61851C29.398 3.39619 28.9318 4.45541 28.9318 5.62361C28.9318 6.79182 29.398 7.85104 30.1508 8.617C30.9036 9.38296 31.9447 9.85724 33.0928 9.85724C34.241 9.85724 35.282 9.38291 36.0349 8.617C36.7877 7.85104 37.2538 6.79182 37.2538 5.62361C37.2538 4.45541 36.7876 3.39619 36.0349 2.62855ZM10.4052 17.381C10.672 16.6234 11.0278 15.9077 11.4561 15.2474C11.7082 14.8602 11.9849 14.4915 12.2847 14.1445C12.0475 13.2428 11.6192 12.4216 11.0459 11.7261C10.4447 10.997 9.68528 10.407 8.8205 10.0132C8.07759 10.4573 7.21112 10.7137 6.287 10.7137C5.36289 10.7137 4.49642 10.4573 3.75351 10.0132C2.67126 10.5059 1.75208 11.307 1.10304 12.3043C0.472133 13.2763 0.0982113 14.4379 0.0800781 15.6881C0.656627 16.8547 2.25116 17.6055 4.12246 17.9273C6.22438 18.291 8.64435 18.11 10.4037 17.3793L10.4052 17.381ZM9.229 2.62855C8.47618 1.86259 7.43513 1.38831 6.28696 1.38831C5.1388 1.38831 4.09775 1.86264 3.34493 2.62855C2.59211 3.3928 2.12596 4.45206 2.12596 5.62194C2.12596 6.79014 2.59215 7.84936 3.34493 8.61532C4.09606 9.38128 5.13715 9.85557 6.28696 9.85557C7.43513 9.85557 8.47618 9.38124 9.229 8.61532C9.98182 7.84936 10.448 6.79014 10.448 5.62194C10.448 4.45373 9.98178 3.39451 9.229 2.62855ZM23.3311 12.3712C22.2719 13.035 21.0249 13.4187 19.6906 13.4187C18.3563 13.4187 17.1094 13.0349 16.0502 12.3712C14.9086 12.8841 13.889 13.6333 13.0538 14.5568C12.7243 14.9188 12.4262 15.3076 12.1593 15.7199C11.2352 17.1429 10.6899 18.8474 10.6718 20.6807C11.1512 21.6813 12.1346 22.4774 13.4063 23.064C15.1491 23.8668 17.4174 24.2691 19.6922 24.2691C21.9671 24.2691 24.2352 23.8668 25.9781 23.064C27.2497 22.4774 28.2332 21.6813 28.7125 20.6807C28.6944 18.8472 28.1492 17.1427 27.2251 15.7199C26.9582 15.3076 26.6584 14.9205 26.3306 14.5568C25.4938 13.6333 24.4758 12.8841 23.3342 12.3712H23.3311ZM24.0081 1.95493C22.9028 0.830316 21.3758 0.134766 19.6908 0.134766C18.004 0.134766 16.4769 0.830316 15.3734 1.95493C14.2681 3.07954 13.5845 4.63321 13.5845 6.34765C13.5845 8.06222 14.2681 9.61589 15.3734 10.7404C16.4787 11.8649 18.0057 12.5605 19.6908 12.5605C21.3776 12.5605 22.9046 11.865 24.0081 10.7404C25.1135 9.61577 25.7971 8.06209 25.7971 6.34765C25.7971 4.63141 25.1135 3.07774 24.0081 1.95493Z" fill="#873CFC"/>
</svg>
