<svg width="52" height="82" viewBox="0 0 52 82" fill="none" xmlns="http://www.w3.org/2000/svg">
<path d="M51.9285 6.6455L50.3588 0.962751C50.1682 0.264748 49.4429 -0.143814 48.7449 0.0468171L33.1606 4.31653C31.3492 4.82045 29.9532 6.26755 29.5173 8.08234L26.7014 19.5367C24.8799 19.4312 23.0071 19.3699 21.0868 19.3699C17.7227 19.3699 1.22264 19.6048 0.497428 24.0857C0.470189 24.1811 0.463379 24.2866 0.463379 24.3922V24.5215L6.4526 80.8322C6.5207 81.4961 7.08932 82 7.74989 82H34.4138C35.0846 82 35.643 81.4961 35.7111 80.8322L41.6901 24.5215V24.399V24.382V24.3649C41.6901 24.3036 41.6901 24.2424 41.6731 24.1811C41.5164 22.5331 39.5109 21.3823 35.265 20.5446L36.9028 13.6225C37.1377 12.6384 37.8868 11.852 38.8742 11.5727L50.9989 8.25969C51.3394 8.17116 51.6186 7.94643 51.7922 7.64C51.9659 7.33356 52.0102 6.97604 51.9148 6.64579L51.9285 6.6455ZM32.4828 28.6992H32.5168H32.527C35.4723 28.2974 37.4335 27.8004 38.7683 27.2964L37.5391 38.8632H4.62365L3.39444 27.2624C8.70264 29.336 19.554 29.4143 21.0899 29.4143C22.7991 29.4143 24.4642 29.3701 26.0406 29.2917C28.3696 29.1692 30.5385 28.9785 32.4827 28.7061L32.4828 28.6992ZM21.0903 21.9882C22.7893 21.9882 24.4475 22.0393 26.0682 22.1278L24.9445 26.704C23.6983 26.755 22.4181 26.7823 21.0902 26.7823C10.5859 26.7823 4.52874 25.2569 3.26571 24.4193C4.64127 23.4864 10.6851 21.9882 21.0903 21.9882ZM33.2324 79.3779H8.93155L4.90355 41.4714H37.2672L33.2392 79.3779H33.2324ZM38.8199 24.3922C38.2274 24.7497 36.8144 25.3081 34.036 25.8052L34.6795 23.0949C37.2059 23.592 38.3398 24.0959 38.8199 24.3922ZM38.1832 9.05284C36.273 9.59421 34.8191 11.1094 34.3663 13.0264L32.3949 21.3071C32.3949 21.3071 32.3846 21.3513 32.3778 21.3684V21.3786L31.227 26.217C30.1033 26.3566 28.9185 26.4689 27.6621 26.5643L32.0476 8.71278C32.2655 7.81393 32.9533 7.09882 33.8419 6.85711L48.1632 2.93467L49.0349 6.09782L38.1732 9.07033L38.1832 9.05284Z" fill="#DF5D5D"/>
<path d="M30.1031 65.6896V65.5943C30.1031 65.4989 30.0759 65.4036 30.052 65.3151C30.052 65.298 30.052 65.281 30.035 65.264C30.001 65.1584 29.9397 65.0563 29.8784 64.9678C29.8784 64.9576 29.8682 64.9507 29.8614 64.9405L26.3849 60.1566C26.167 59.8604 25.8436 59.6697 25.4792 59.6255L19.6057 58.9207H19.5717C19.4593 58.9104 19.3436 58.9104 19.2312 58.9309C19.2142 58.9309 19.204 58.9309 19.1972 58.9411C19.1018 58.9581 19.0065 58.9922 18.918 59.0364C18.8907 59.0466 18.8669 59.0637 18.8294 59.0807C18.8124 59.0909 18.7852 59.0977 18.7681 59.1147C18.6898 59.159 18.6285 59.2101 18.5604 59.2714C18.4719 59.3497 18.4038 59.445 18.3425 59.5403C18.3425 59.5505 18.3255 59.5574 18.3255 59.5676L15.067 65.1278C14.815 65.5636 14.8321 66.0948 15.1113 66.5135L18.448 71.5357C18.448 71.5357 18.4583 71.5459 18.4651 71.5528C18.5093 71.614 18.5536 71.6651 18.6047 71.7196C18.6217 71.7366 18.6319 71.7537 18.6489 71.7639C18.717 71.8252 18.7885 71.8864 18.8771 71.9375C18.9724 71.9886 19.0677 72.0329 19.1733 72.0601C19.2073 72.0703 19.2516 72.0771 19.2856 72.0873C19.3367 72.0975 19.381 72.1146 19.4355 72.1146L25.4485 72.5844H25.554C26.0171 72.5844 26.4427 72.3393 26.6879 71.9409L29.9464 66.3807C29.9464 66.3807 29.9464 66.3535 29.9634 66.3467C30.0588 66.173 30.12 65.9789 30.1303 65.7712V65.7031L30.1031 65.6896ZM26.1466 64.297L23.4023 64.1914L21.9722 61.8454L24.5974 62.1587L26.15 64.2936L26.1466 64.297ZM19.4593 62.7716L21.1141 65.4819L19.4389 68.3318L17.7125 65.7338L19.4559 62.7613L19.4593 62.7716ZM24.8186 69.9014L21.7065 69.6563L23.3818 66.8064L26.5551 66.929L24.8118 69.8912L24.8186 69.9014Z" fill="#DF5D5D"/>
<path d="M35.2616 50.9604V50.8923V50.797C35.2616 50.7016 35.2344 50.6063 35.2106 50.5178C35.2106 50.5007 35.2106 50.4837 35.1935 50.4667C35.1595 50.3611 35.0982 50.259 35.0369 50.1705C35.0369 50.1603 35.0267 50.1534 35.0199 50.1432L32.187 46.248C31.9691 45.9518 31.6456 45.7611 31.2813 45.7168L26.4974 45.1414H26.4633C26.2352 45.1141 26.0003 45.1584 25.7823 45.264C25.7653 45.264 25.7483 45.281 25.7313 45.2912C25.704 45.3082 25.6802 45.3184 25.653 45.3355C25.4691 45.4478 25.3295 45.5976 25.2273 45.7611C25.2273 45.7713 25.2103 45.7781 25.2001 45.7883L22.5409 50.3134C22.4455 50.4803 22.4013 50.6539 22.3842 50.8378C22.357 50.8037 22.3332 50.7595 22.2957 50.7254L17.7093 46.139C17.631 46.0607 17.5357 45.9892 17.4301 45.9381C17.362 45.9041 17.2803 45.87 17.1952 45.8428C17.1679 45.8428 17.1441 45.8428 17.1169 45.8258C17.0896 45.8258 17.0658 45.8155 17.0284 45.8087C16.933 45.7917 16.8275 45.7815 16.7321 45.7917H16.6981C16.5857 45.8019 16.4699 45.8258 16.3678 45.87H16.3338L10.8246 48.0322C10.4841 48.1616 10.2152 48.4339 10.0824 48.7744L7.92023 54.2835V54.3176C7.88618 54.4231 7.85213 54.5355 7.84192 54.6479V54.6921C7.84192 54.7875 7.84192 54.8828 7.85894 54.9781C7.85894 55.0054 7.86916 55.0394 7.87597 55.0667C7.87597 55.0939 7.87597 55.1177 7.89299 55.1348C7.90321 55.1688 7.92704 55.1961 7.93726 55.2301C7.9645 55.3084 7.99854 55.3799 8.0428 55.448C8.07685 55.4991 8.1109 55.5434 8.14835 55.5876C8.17559 55.6149 8.19262 55.6489 8.21645 55.6762L12.7756 60.2353C13.0276 60.4873 13.3613 60.6201 13.6984 60.6201C13.838 60.6201 13.9844 60.5929 14.124 60.552L19.8238 58.5806C19.8238 58.5806 19.8511 58.5636 19.8681 58.5636C19.8953 58.5636 19.9123 58.5465 19.9294 58.5363C20.0792 58.4682 20.2086 58.3865 20.3209 58.2741C20.4333 58.1618 20.5116 58.029 20.5831 57.8826C20.5933 57.8553 20.6103 57.8383 20.6172 57.8213C20.6172 57.8043 20.6342 57.794 20.6342 57.777L22.6056 52.0772C22.6328 51.9887 22.6396 51.9035 22.6567 51.815L25.2988 55.7885C25.2988 55.7885 25.3159 55.8056 25.3159 55.8158C25.3499 55.8668 25.4044 55.9213 25.4452 55.9724L25.4963 56.0235C25.5644 56.0848 25.6359 56.1358 25.7142 56.1903C25.8096 56.2414 25.9151 56.2856 26.0207 56.3197C26.0547 56.3299 26.099 56.3367 26.133 56.3469C26.1841 56.3572 26.2284 56.3742 26.2829 56.3742L31.1723 56.7589H31.2779C31.7409 56.7589 32.1665 56.5138 32.4117 56.1154L35.0709 51.5903C35.0709 51.5903 35.0709 51.5631 35.088 51.5563C35.1833 51.3826 35.2446 51.1885 35.2548 50.9808L35.2616 50.9604ZM18.8571 54.9339L16.5213 52.5981L17.4441 49.5576L19.8752 51.9887L18.8537 54.9339H18.8571ZM14.7882 49.2886L13.9949 51.9205L11.3629 52.7139L12.3299 50.2555L14.7882 49.2886ZM14.0562 57.8042L11.625 55.3731L14.6656 54.4503L17.0014 56.7861L14.0562 57.8076V57.8042ZM31.3053 49.486L29.7017 49.4247L28.8641 48.056L30.3996 48.2398L31.3053 49.486ZM25.2309 50.9262L26.3648 48.9922L27.4272 50.7253L26.3376 52.581L25.231 50.9159L25.2309 50.9262ZM30.5834 54.0622L28.595 53.9056L29.6846 52.0499L31.7139 52.1282L30.58 54.0622L30.5834 54.0622Z" fill="#DF5D5D"/>
</svg>
