<svg width="67" height="67" viewBox="0 0 67 67" fill="none" xmlns="http://www.w3.org/2000/svg">
<path d="M67 33.5C66.9999 34.0919 66.7651 34.6596 66.3472 35.0787C65.9292 35.4977 65.3622 35.7339 64.7704 35.7355H59.6523L62.7001 38.7895C62.9105 38.9957 63.078 39.2417 63.1928 39.513C63.3076 39.7844 63.3675 40.0759 63.3689 40.3705C63.3704 40.6652 63.3135 40.9573 63.2014 41.2298C63.0894 41.5023 62.9244 41.7499 62.7161 41.9583C62.5078 42.1667 62.2602 42.3316 61.9877 42.4437C61.7153 42.5558 61.4233 42.6128 61.1287 42.6113C60.8341 42.6098 60.5427 42.5499 60.2713 42.4351C60 42.3202 59.7541 42.1527 59.5479 41.9423L53.3424 35.7355H41.9309C41.7348 36.4881 41.4335 37.2093 41.0358 37.8777L49.103 45.9465H57.8895C58.4808 45.9472 59.0476 46.1828 59.4652 46.6016C59.8828 47.0203 60.117 47.5878 60.1163 48.1792C60.1156 48.7707 59.88 49.3376 59.4613 49.7553C59.0427 50.173 58.4753 50.4073 57.884 50.4065H53.5621L57.1866 54.0372C57.6046 54.456 57.8391 55.0238 57.8386 55.6156C57.8381 56.2073 57.6025 56.7747 57.1838 57.1928C56.7651 57.6109 56.1974 57.8455 55.6058 57.8449C55.0141 57.8444 54.4469 57.6088 54.0289 57.19L50.4154 53.5703L50.4099 57.8876C50.4099 58.4791 50.175 59.0463 49.7569 59.4645C49.3388 59.8827 48.7717 60.1176 48.1804 60.1176C47.589 60.1176 47.0219 59.8827 46.6038 59.4645C46.1857 59.0463 45.9508 58.4791 45.9508 57.8876V49.1103L37.8837 41.036C37.2109 41.4325 36.4864 41.7338 35.731 41.9313V53.3342L41.9474 59.5519C42.1544 59.7593 42.3185 60.0054 42.4304 60.2762C42.5423 60.547 42.5997 60.8372 42.5995 61.1302C42.5992 61.4233 42.5412 61.7134 42.4289 61.984C42.3166 62.2546 42.152 62.5004 41.9447 62.7075C41.7373 62.9145 41.4913 63.0786 41.2205 63.1905C40.9498 63.3024 40.6596 63.3599 40.3666 63.3596C40.0737 63.3594 39.7837 63.3014 39.5131 63.189C39.2425 63.0767 38.9967 62.9121 38.7898 62.7047L35.731 59.6453V64.77C35.731 65.0628 35.6733 65.3528 35.5612 65.6234C35.4492 65.8939 35.285 66.1398 35.0779 66.3468C34.8709 66.5539 34.6251 66.7182 34.3546 66.8303C34.0841 66.9423 33.7942 67 33.5014 67C33.2086 67 32.9187 66.9423 32.6482 66.8303C32.3776 66.7182 32.1319 66.5539 31.9248 66.3468C31.7178 66.1398 31.5536 65.8939 31.4415 65.6234C31.3295 65.3528 31.2718 65.0628 31.2718 64.77V59.6508L28.213 62.7047C28.0068 62.9152 27.7609 63.0827 27.4896 63.1975C27.2182 63.3123 26.9268 63.3722 26.6322 63.3737C26.3376 63.3752 26.0456 63.3182 25.7732 63.2062C25.5007 63.0941 25.2531 62.9291 25.0448 62.7207C24.8365 62.5123 24.6715 62.2647 24.5595 61.9922C24.4474 61.7197 24.3905 61.4276 24.392 61.133C24.3935 60.8383 24.4533 60.5468 24.5681 60.2755C24.6829 60.0041 24.8504 59.7581 25.0608 59.5519L31.2718 53.3451V41.9313C30.5173 41.7362 29.7943 41.4347 29.1246 41.036L21.052 49.1048V57.8876C21.052 58.4783 20.8174 59.0448 20.3997 59.4625C19.9821 59.8802 19.4157 60.1149 18.8251 60.1149C18.2345 60.1149 17.6681 59.8802 17.2505 59.4625C16.8329 59.0448 16.5983 58.4783 16.5983 57.8876V53.5648L12.9739 57.19C12.5551 57.6081 11.9875 57.8427 11.3958 57.8422C10.8042 57.8417 10.2369 57.6061 9.81894 57.1873C9.40094 56.7685 9.1664 56.2007 9.16691 55.6089C9.16743 55.0172 9.40296 54.4498 9.82169 54.0317L13.4351 50.412H9.11877C8.52744 50.412 7.96034 50.1771 7.54221 49.7589C7.12409 49.3407 6.88919 48.7734 6.88919 48.182C6.88919 47.5906 7.12409 47.0233 7.54221 46.6051C7.96034 46.1869 8.52744 45.952 9.11877 45.952L17.8943 45.9575L25.9669 37.8832C25.5728 37.2111 25.2717 36.4886 25.0718 35.7355H13.6713L7.45482 41.9478C7.03538 42.3589 6.47067 42.5879 5.8834 42.5849C5.29613 42.5819 4.73376 42.3473 4.31849 41.9319C3.90323 41.5166 3.66862 40.9541 3.66565 40.3667C3.66269 39.7793 3.8916 39.2145 4.30265 38.795L7.36146 35.7355H2.23233C1.64028 35.7355 1.07248 35.5003 0.653833 35.0816C0.235191 34.6628 0 34.0949 0 33.5027C0 32.9106 0.235191 32.3427 0.653833 31.9239C1.07248 31.5052 1.64028 31.27 2.23233 31.27H7.35048L4.30265 28.216C4.09223 28.0098 3.92478 27.7638 3.80998 27.4925C3.69518 27.2211 3.6353 26.9296 3.63381 26.635C3.63232 26.3403 3.68925 26.0482 3.80131 25.7757C3.91337 25.5032 4.07833 25.2556 4.28665 25.0472C4.49498 24.8388 4.74253 24.6738 5.015 24.5618C5.28748 24.4497 5.57946 24.3927 5.87407 24.3942C6.16868 24.3957 6.46008 24.4556 6.7314 24.5704C7.00273 24.6853 7.24861 24.8527 7.45482 25.0632L13.6603 31.27H25.0718C25.2693 30.5143 25.5705 29.7897 25.9669 29.1168L17.9053 21.048H9.11328C8.52195 21.048 7.95485 20.8131 7.53672 20.3949C7.1186 19.9767 6.88369 19.4094 6.88369 18.818C6.88369 18.2266 7.1186 17.6593 7.53672 17.2411C7.95485 16.8229 8.52195 16.588 9.11328 16.588H13.4406L9.8162 12.9628C9.39747 12.5447 9.16193 11.9774 9.16142 11.3856C9.1609 10.7938 9.39545 10.226 9.81345 9.80722C10.2315 9.38841 10.7987 9.15283 11.3903 9.15231C11.982 9.1518 12.5496 9.38639 12.9684 9.80448L16.5873 13.4297L16.5928 9.1069C16.5928 8.51546 16.8277 7.94824 17.2458 7.53003C17.664 7.11182 18.2311 6.87686 18.8224 6.87686C19.4137 6.87686 19.9808 7.11182 20.3989 7.53003C20.8171 7.94824 21.052 8.51546 21.052 9.1069L21.0465 17.8897L29.1246 25.964C29.7943 25.5653 30.5173 25.2638 31.2718 25.0687V13.6658L25.0553 7.44811C24.8484 7.24073 24.6842 6.99461 24.5724 6.72379C24.4605 6.45298 24.403 6.16278 24.4033 5.86976C24.4038 5.27798 24.6393 4.71064 25.0581 4.29255C25.4768 3.87446 26.0444 3.63987 26.6361 3.64038C27.2278 3.6409 27.795 3.87648 28.213 4.29529L31.2718 7.35473V2.23004C31.2718 1.6386 31.5067 1.07138 31.9248 0.653163C32.343 0.23495 32.9101 0 33.5014 0C34.0927 0 34.6598 0.23495 35.0779 0.653163C35.4961 1.07138 35.731 1.6386 35.731 2.23004V7.34924L38.7898 4.29529C38.996 4.08483 39.2418 3.91735 39.5132 3.80252C39.7845 3.68769 40.0759 3.6278 40.3705 3.62632C40.6651 3.62483 40.9571 3.68177 41.2296 3.79385C41.5021 3.90593 41.7496 4.07092 41.9579 4.27929C42.1663 4.48766 42.3312 4.73526 42.4433 5.00779C42.5553 5.28032 42.6123 5.57236 42.6108 5.86704C42.6093 6.16171 42.5494 6.45316 42.4346 6.72454C42.3198 6.99593 42.1524 7.24185 41.9419 7.44811L35.731 13.6549V25.0687C36.4878 25.2672 37.214 25.5684 37.8891 25.964L45.9508 17.9007V9.1069C45.9511 8.81441 46.0091 8.52485 46.1213 8.25476C46.2336 7.98468 46.3979 7.73934 46.6049 7.53277C46.812 7.32621 47.0577 7.16245 47.328 7.05085C47.5983 6.93925 47.8879 6.882 48.1804 6.88236C48.4728 6.88272 48.7623 6.94069 49.0323 7.05295C49.3024 7.16522 49.5476 7.32958 49.7542 7.53666C49.9607 7.74374 50.1244 7.98947 50.236 8.25984C50.3476 8.5302 50.4048 8.8199 50.4045 9.1124V13.4352L54.0289 9.80997C54.4469 9.39115 55.0141 9.15557 55.6058 9.15506C56.1974 9.15454 56.7651 9.38913 57.1838 9.80722C57.6025 10.2253 57.8381 10.7927 57.8386 11.3844C57.8391 11.9762 57.6046 12.544 57.1866 12.9628L53.5676 16.588H57.884C58.4746 16.588 59.041 16.8226 59.4586 17.2403C59.8762 17.658 60.1108 18.2245 60.1108 18.8153C60.1108 19.406 59.8762 19.9725 59.4586 20.3902C59.041 20.8079 58.4746 21.0425 57.884 21.0425H49.103L41.0358 29.1168C41.4322 29.7897 41.7335 30.5143 41.9309 31.27H53.3315L59.5479 25.0577C59.7541 24.8473 60 24.6798 60.2713 24.5649C60.5427 24.4501 60.8341 24.3902 61.1287 24.3887C61.4233 24.3873 61.7153 24.4442 61.9877 24.5563C62.2602 24.6684 62.5078 24.8333 62.7161 25.0417C62.9244 25.2501 63.0894 25.4977 63.2014 25.7702C63.3135 26.0427 63.3704 26.3348 63.3689 26.6295C63.3675 26.9241 63.3076 27.2156 63.1928 27.487C63.078 27.7583 62.9105 28.0043 62.7001 28.2105L59.6413 31.27H64.7704C65.3616 31.2704 65.9285 31.5055 66.3465 31.9236C66.7645 32.3417 66.9996 32.9087 67 33.5Z" fill="#3669E9"/>
</svg>
