<svg width="79" height="86" viewBox="0 0 79 86" fill="none" xmlns="http://www.w3.org/2000/svg">
<path d="M77.5259 10.2391C76.2897 8.85804 74.5359 8.16848 72.6758 8.34232C72.5 8.3597 72.3397 8.41958 72.1678 8.45049C72.5174 6.36831 71.5768 4.19921 69.6317 3.10984C68.4323 2.43574 67.0454 2.27349 65.7243 2.64627C64.9787 2.85681 64.3181 3.23732 63.7503 3.73178C63.6885 3.57147 63.6556 3.40343 63.5784 3.24504C62.7613 1.58007 61.2509 0.434682 59.4275 0.102461C57.5965 -0.245213 55.7808 0.303338 54.4326 1.57428C53.0825 2.84135 52.4296 4.62221 52.6479 6.46295L54.1043 18.8208C51.4542 18.448 48.725 18.8247 46.1908 19.9874C41.9975 21.9112 39.0674 25.6062 38.1885 29.9811L35.8727 37.3306C35.5713 36.3938 35.4226 35.401 35.4458 34.3695C35.4786 32.8668 35.2082 31.3216 34.6423 29.7822C33.6108 26.9313 31.6079 24.6057 29.1143 23.1455C31.3703 22.3536 33.9044 21.0421 35.9036 18.8672C40.5102 13.8587 40.3229 6.38762 40.3132 6.07085C40.2997 5.68648 40.1336 5.32336 39.8497 5.0626C39.5677 4.80185 39.1987 4.66664 38.8066 4.68595C38.4937 4.70334 31.0342 5.14566 26.4275 10.156C26.0065 10.6138 25.6375 11.0986 25.2918 11.5911C25.0813 9.85856 24.7259 8.13565 24.185 6.44364C23.9417 5.68841 23.1362 5.27314 22.3829 5.51651C21.6296 5.75795 21.2144 6.56339 21.4539 7.31668C22.9469 11.9774 22.9836 16.8796 21.6683 21.5713C15.2653 22.1855 10.2144 27.5513 10.2144 34.3367C10.2627 36.9346 9.24667 39.3297 7.34992 41.0796C2.85914 45.2517 0.253521 50.8918 0.0159443 56.9664C-0.215838 62.9637 2.08846 68.9746 6.33974 73.4615C10.5292 77.8828 16.2986 80.4787 22.2226 80.6352L22.1859 80.753C21.6683 82.3871 22.325 84.0463 23.8219 84.8845C24.384 85.2013 24.9828 85.3539 25.5719 85.3539C26.5511 85.3539 27.4995 84.9309 28.2007 84.1255L63.0317 44.0696C66.408 40.927 68.0267 36.4981 67.4762 31.9204C67.142 29.1486 66.041 26.628 64.3374 24.5632L75.6368 19.3481C77.3173 18.5716 78.4974 17.0863 78.8721 15.2726C79.2546 13.455 78.762 11.6201 77.5259 10.2391ZM21.7938 71.2538C21.7938 71.2538 21.7938 71.2558 21.7919 71.2538C21.6779 71.3311 21.5524 71.3929 21.4172 71.4354C21.2839 71.4779 21.141 71.4991 20.9942 71.4991C17.6353 71.4991 14.5893 70.1316 12.3815 67.9258C10.1738 65.7219 8.80628 62.674 8.80628 59.3132C8.80628 58.9172 8.9666 58.5579 9.22736 58.3011C9.48618 58.0422 9.84351 57.8819 10.2395 57.8819C10.6335 57.8819 10.9908 58.0403 11.2497 58.3011C11.5085 58.5599 11.6688 58.9172 11.6688 59.3132C11.6688 61.884 12.7157 64.2154 14.4038 65.9016C14.879 66.3767 15.4044 66.7997 15.9722 67.1648C16.0978 67.244 16.2252 67.3232 16.3547 67.3985H16.3566C16.486 67.4719 16.6173 67.5434 16.7506 67.6129H16.7526C16.8858 67.6824 17.021 67.7481 17.1582 67.8099H17.1601C17.2972 67.8717 17.4363 67.9316 17.5754 67.9876H17.5773C17.7183 68.0436 17.8612 68.0958 18.0042 68.1441C18.9429 68.4628 19.9473 68.6347 20.9922 68.6347C21.4365 68.6347 21.8344 68.8375 22.0971 69.1581C22.1531 69.2277 22.2052 69.303 22.2497 69.3841L22.2516 69.386C22.3597 69.5888 22.4216 69.8206 22.4216 70.0659C22.4216 70.5585 22.1724 70.995 21.7938 71.2538ZM23.0532 24.3198C23.0899 24.3218 23.1285 24.3218 23.1749 24.3256C23.1304 24.3237 23.0899 24.3218 23.0532 24.3198ZM64.4707 31.2347C64.4997 31.366 64.5248 31.4974 64.5461 31.6306C64.5827 31.8354 64.6137 32.0421 64.6388 32.2507C64.6523 32.3723 64.6658 32.4921 64.6755 32.6119C64.7605 33.5428 64.7296 34.4622 64.5924 35.3585C64.575 35.4705 64.5557 35.5845 64.5345 35.6965C64.3278 36.8148 63.9511 37.8965 63.4123 38.9125C59.6632 37.9332 56.2173 35.9997 53.4437 33.2956C52.8835 32.7471 51.9777 32.7567 51.4194 33.3227C51.3171 33.427 51.236 33.5428 51.1722 33.6665C51.0872 33.8306 51.037 34.0064 51.0196 34.186C50.981 34.6013 51.1239 35.032 51.4465 35.3469C54.3206 38.1457 57.8495 40.1737 61.6797 41.35C61.6777 41.352 61.6777 41.352 61.6758 41.3539C61.4537 41.5992 61.2316 41.8464 60.9843 42.0763L55.155 48.7767C51.8289 47.7279 48.7559 45.9393 46.2526 43.4998C45.6925 42.9493 44.7808 42.9629 44.2284 43.5269C44.128 43.6312 44.0449 43.7471 43.9812 43.8707L43.9792 43.8765C43.9368 43.9557 43.9039 44.0387 43.8807 44.1237C43.8556 44.2106 43.8382 44.3014 43.8286 44.3903C43.79 44.8055 43.9329 45.2363 44.2555 45.5511C46.7838 48.0138 49.8317 49.8796 53.1288 51.1023L53.125 51.1061L46.6138 58.5927C43.9773 57.5053 41.59 55.9716 39.5368 53.9706C38.9766 53.422 38.0707 53.4298 37.5125 53.9976C37.4101 54.1019 37.329 54.2178 37.2653 54.3414C37.1803 54.5056 37.1301 54.6814 37.1127 54.861C37.0741 55.2763 37.217 55.707 37.5396 56.0219C39.6237 58.0538 42.0149 59.6608 44.6398 60.8603L44.636 60.8642L26.047 82.2345C25.7399 82.5918 25.4038 82.4779 25.2242 82.3774C25.1025 82.3079 24.9325 82.1746 24.89 81.9486C24.8765 81.8694 24.8765 81.7767 24.9016 81.6724C24.9055 81.6512 24.9113 81.628 24.919 81.6048L25.5526 79.598C25.5757 79.5342 25.5989 79.4744 25.6124 79.4087L40.9603 30.6919C41.6923 27.0761 44.0372 24.1228 47.3884 22.5873C48.922 21.8842 50.5406 21.5346 52.1534 21.5346C54.0695 21.5346 55.9759 22.0271 57.722 23.0045L58.8848 23.6554C59.8911 24.2194 60.7892 24.9148 61.558 25.7163C62.4851 26.6744 63.2268 27.785 63.758 29.0057C63.8044 29.1081 63.8468 29.2104 63.8874 29.3128C63.9705 29.5156 64.0458 29.7223 64.1173 29.9328C64.1907 30.1472 64.2563 30.3655 64.3143 30.5857C64.3741 30.8001 64.4263 31.0164 64.4707 31.2347Z" fill="#9EDF5D"/>
</svg>
