<svg width="88" height="75" viewBox="0 0 88 75" fill="none" xmlns="http://www.w3.org/2000/svg">
<path d="M14.3733 40.5038C12.8075 40.0916 10.4882 43.8796 9.15959 48.9516C7.83099 54.0261 7.99554 58.4627 9.55957 58.8723C11.093 59.2749 13.4123 55.4886 14.7409 50.4149C16.0669 45.3412 15.905 40.9038 14.3733 40.5038Z" fill="#535355"/>
<path d="M42.6748 42.5738C31.4299 27.1409 18.0415 26.6718 18.0415 26.6718C12.2825 25.1629 5.04258 34.1523 1.75435 46.7206C1.72897 46.8125 1.71321 46.9044 1.68783 46.9955C1.66245 47.0891 1.63794 47.1749 1.61256 47.2659C-1.6818 59.8342 0.217444 71.2174 5.9782 72.7263C5.9782 72.7263 17.8796 78.8792 35.2441 70.9417C52.0923 63.2362 59.0048 65.2002 61.3557 65.8164L62.1355 62.8275L62.9197 59.8429C60.5706 59.2268 53.5828 57.5481 42.6748 42.5738ZM20.8807 52.0219C17.905 63.3701 11.5298 71.5264 6.62587 70.2424C1.61168 68.9296 0.0458992 58.6903 3.01905 47.3447C5.99483 35.9991 12.37 27.8402 17.3868 29.1557C22.2916 30.4396 23.8539 40.6763 20.8807 52.0219Z" fill="#535355"/>
<path d="M73.4278 61.2162C72.479 59.4736 70.2875 58.8242 68.544 59.7747C68.0171 60.06 67.5865 60.474 67.2706 60.9676L62.8498 59.8018L61.2665 65.8015L65.6838 66.9638C65.7468 67.3673 65.8807 67.7585 66.0802 68.1261C67.0325 69.8713 69.2241 70.5155 70.964 69.565C72.4292 68.7694 73.1215 67.0977 72.7416 65.5538C73.8995 64.4554 74.2242 62.6813 73.4278 61.2162ZM72.0869 61.947C72.6375 62.9526 72.2611 64.2138 71.2563 64.7626C71.0682 64.8624 70.8721 64.9044 70.6752 64.942C70.817 65.0855 70.964 65.2238 71.0647 65.4094C71.6152 66.415 71.2388 67.6806 70.2341 68.2276C69.2319 68.772 67.9707 68.4018 67.4202 67.3944C67.1454 66.8859 67.1025 66.3152 67.2557 65.8024L63.1325 64.7153L63.9342 61.6678L68.2281 62.8038C68.2797 62.1194 68.6245 61.4665 69.2722 61.1173C70.2752 60.5667 71.5399 60.9361 72.0869 61.947Z" fill="#535355"/>
<path d="M82.86 26.0144C81.1315 23.6811 78.7368 21.4694 75.3269 19.7784C56.2163 10.2813 42.0113 12.5473 42.0113 12.5473C42.0113 12.5473 42.2372 4.279 38.3205 0C38.3205 0 38.717 1.30847 38.4124 1.87474C38.1113 2.44189 35.0568 6.46182 35.1478 8.33393C35.2397 10.2087 34.4844 11.6257 34.4844 11.6257C34.4844 11.6257 33.7255 13.0444 32.1169 14.0072C30.51 14.9734 28.8707 19.7513 28.5643 20.3141C28.2597 20.8812 26.9574 21.2803 26.9574 21.2803C32.6893 22.1573 39.4312 17.3707 39.4312 17.3707C39.4312 17.3707 45.5919 30.1998 63.963 41.0561C67.4604 43.1199 70.599 44.0967 73.3717 44.4205C73.1494 41.008 73.8811 37.2489 75.7838 33.6928C77.5763 30.3328 80.0978 27.7386 82.86 26.0144Z" fill="#535355"/>
<path d="M54.437 11.6292C58.7326 12.1578 68.7435 13.819 76.3773 18.4227C75.4801 15.3489 71.5022 7.73704 54.437 11.6292Z" fill="#535355"/>
<path d="M51.3282 37.83C50.6105 40.0321 50.3611 41.4071 50.3611 41.4071C50.3611 41.4071 55.419 41.9331 58.8351 39.9927C56.6724 38.3271 54.1464 36.4507 53.1907 35.536C52.5089 35.9343 51.7212 36.6318 51.3282 37.83Z" fill="#535355"/>
<path d="M84.0381 27.4437C81.4465 29.0471 79.0668 31.4863 77.3715 34.6617C75.5597 38.0611 74.8727 41.6434 75.1186 44.8546C83.0403 45.1872 87.5066 40.0793 87.5066 40.0793C87.5066 40.0793 87.9696 33.5615 84.0381 27.4437ZM82.8101 34.8945C81.7791 34.8945 80.9398 34.0578 80.9398 33.0241C80.9398 31.9914 81.7791 31.1538 82.8101 31.1538C83.8464 31.1538 84.6805 31.9914 84.6805 33.0241C84.6805 34.0578 83.8464 34.8945 82.8101 34.8945Z" fill="#535355"/>
</svg>
