<svg width="74" height="70" viewBox="0 0 74 70" fill="none" xmlns="http://www.w3.org/2000/svg">
<path d="M38.9343 36.6018C38.9343 31.252 34.5709 26.8885 29.2094 26.8885C23.848 26.8885 19.4846 31.2404 19.4846 36.6018C19.4846 41.9633 23.848 46.3267 29.2094 46.3267C34.5825 46.3267 38.9343 41.9633 38.9343 36.6018ZM21.2369 36.6018C21.2369 32.2152 24.8112 28.6409 29.2094 28.6409C33.6077 28.6409 37.1936 32.2152 37.1936 36.6018C37.1936 41.0001 33.6193 44.5744 29.2094 44.5744C24.8112 44.586 21.2369 41.0001 21.2369 36.6018Z" fill="#FFC700"/>
<path d="M61.912 36.9964C61.6916 36.9267 61.4478 36.9499 61.2506 37.0544L43.0077 46.6864V23.0821C43.0077 22.9428 42.9729 22.8152 42.9149 22.6991C42.9149 22.6875 42.9149 22.6759 42.9032 22.6643L34.6986 7.20663V0.870366C34.6986 0.382961 34.304 0 33.8282 0H7.87971C7.39231 0 7.00935 0.394566 7.00935 0.870366V7.41552L0.0812342 22.7224C0.0348147 22.8384 0 22.9545 0 23.0821V68.7821C0 69.2695 0.394566 69.6525 0.870366 69.6525H16.2933H73.0411C73.5285 69.6525 73.9115 69.2579 73.9115 68.7821V63.7456V51.6533C73.9115 51.6417 73.9115 51.6417 73.9115 51.6301C74.2828 44.4583 70.2443 39.5262 61.912 36.9964ZM44.9225 52.4657H51.3748V52.4773C51.3748 54.2644 49.9358 55.7034 48.1603 55.7034C46.3731 55.7034 44.9341 54.2528 44.9341 52.4773C44.9225 52.4657 44.9225 52.4657 44.9225 52.4657ZM61.7496 38.7719C68.7473 40.9884 72.1708 44.8993 72.194 50.7017H52.1523H44.145H39.1317L61.7496 38.7719ZM40.6867 22.2001H16.8155L9.35353 8.48317H33.3988L40.6867 22.2001ZM7.94934 9.57403L14.8078 22.1769H2.23974L7.94934 9.57403ZM8.75008 1.74073H32.9463V6.74244H8.75008V1.74073ZM1.75234 23.9177H15.4229V67.9002H1.75234V23.9177ZM17.1636 23.9525H41.2554V47.6148L35.2556 50.783L35.244 50.7946L35.186 50.8294C35.1512 50.8526 35.128 50.8758 35.0932 50.899C35.0467 50.9338 35.0003 50.957 34.9539 51.0034C34.8843 51.0731 34.8263 51.1543 34.7914 51.2472C34.7798 51.2704 34.7798 51.3052 34.7682 51.3284C34.745 51.398 34.7218 51.4792 34.7218 51.5605C34.7218 51.5721 34.7102 51.5837 34.7102 51.5953V67.9234H17.1636V23.9525ZM36.4741 52.4657H43.1818V52.4773C43.1818 55.2276 45.4099 57.4558 48.1603 57.4558C50.899 57.4558 53.1271 55.2276 53.1271 52.4773V52.4657H72.1824V62.6547C71.9851 62.6315 71.7878 62.5967 71.5905 62.5967C68.9678 62.5967 66.8325 64.7436 66.8325 67.3663C66.8325 67.552 66.8673 67.7261 66.8789 67.9118H49.4716C49.4948 67.7261 49.518 67.552 49.518 67.3663C49.518 64.732 47.3827 62.5967 44.76 62.5967C42.1373 62.5967 40.002 64.7436 40.002 67.3663C40.002 67.552 40.0368 67.7261 40.0484 67.9118H36.4741V52.4657ZM41.7892 67.9118C41.7544 67.7377 41.7428 67.552 41.7428 67.3663C41.7428 65.6952 43.1005 64.3375 44.76 64.3375C46.4195 64.3375 47.7773 65.6952 47.7773 67.3663C47.7773 67.552 47.7657 67.7377 47.7309 67.9118H41.7892ZM72.1708 67.9118H68.6081C68.5732 67.7377 68.5616 67.552 68.5616 67.3663C68.5616 65.6952 69.9194 64.3375 71.5789 64.3375C71.7878 64.3375 71.9851 64.3607 72.1708 64.3955V67.9118Z" fill="#FFC700"/>
<path d="M33.8282 38.2265C33.8282 36.0912 30.7529 31.7974 30.1379 30.9502C29.8129 30.4976 29.0586 30.4976 28.7337 30.9502C28.1186 31.7974 25.0433 36.0912 25.0433 38.2265C25.0433 40.6519 27.0162 42.6247 29.4416 42.6247C31.867 42.6247 33.8282 40.6519 33.8282 38.2265ZM26.7841 38.2265C26.7841 37.2633 28.165 34.8611 29.43 32.9811C30.6949 34.8495 32.0759 37.2633 32.0759 38.2265C32.0759 39.6887 30.8922 40.8724 29.43 40.8724C27.9794 40.884 26.7841 39.6887 26.7841 38.2265Z" fill="#FFC700"/>
<path d="M61.2854 61.8888C63.3162 61.8888 64.9757 60.2294 64.9757 58.1869C64.9757 56.1444 63.3162 54.4849 61.2854 54.4849C59.2429 54.4849 57.5834 56.1444 57.5834 58.1869C57.595 60.2294 59.2545 61.8888 61.2854 61.8888ZM61.2854 56.2373C62.353 56.2373 63.2234 57.1076 63.2234 58.1869C63.2234 59.2661 62.353 60.1365 61.2854 60.1365C60.2061 60.1365 59.3358 59.2661 59.3358 58.1869C59.3358 57.1192 60.2177 56.2373 61.2854 56.2373Z" fill="#FFC700"/>
<path d="M17.4537 10.3748C16.4557 10.3748 15.6433 11.1987 15.6433 12.1851C15.6433 13.1832 16.4557 13.9955 17.4537 13.9955C18.4401 13.9955 19.2524 13.1832 19.2524 12.1851C19.2524 11.1987 18.4401 10.3748 17.4537 10.3748Z" fill="#FFC700"/>
</svg>
