<svg width="75" height="72" viewBox="0 0 75 72" fill="none" xmlns="http://www.w3.org/2000/svg">
<path d="M26.5521 63.7155H21.2048L36.4935 5.19665C36.7948 3.99163 36.5688 2.7113 35.7404 1.6569C34.9119 0.60251 33.7822 0 32.5019 0C30.6944 0 29.1881 1.20502 28.7362 2.93724L12.7697 63.7155H6.06675C3.0542 63.7155 0.568848 66.2008 0.568848 69.2134V72H31.9747V69.1381C31.9747 66.2008 29.4893 63.7155 26.5521 63.7155ZM31.5981 3.76569C31.6734 3.38912 32.05 3.08787 32.5019 3.08787C32.8785 3.08787 33.1797 3.23849 33.4057 3.53975C33.6316 3.841 33.7069 4.14226 33.6316 4.44351L18.117 63.3389H15.9329L31.5981 3.76569ZM6.06675 66.728H20.527C21.8073 66.728 22.8617 67.7071 22.937 68.9874H3.5814C3.73203 67.7071 4.78642 66.728 6.06675 66.728ZM25.9496 68.9874C25.9496 68.159 25.7237 67.4059 25.3471 66.728H26.4768C27.7571 66.728 28.8115 67.7071 28.8868 68.9874H25.9496Z" fill="#F78600"/>
<path d="M67.2969 28.9205H53.0625V31.3306H49.0709C48.5437 29.5983 47.1881 28.318 45.5312 27.7908C45.6065 22.2176 47.0374 17.6234 49.5228 15.1381C50.9538 13.7071 52.7613 12.954 54.8701 12.954C60.0667 12.954 64.2843 19.205 64.2843 26.887H67.2969C67.2969 17.5481 61.6483 9.94144 54.8701 9.94144C51.9328 9.94144 49.3722 10.9958 47.3387 13.0293C43.3471 17.0962 42.5939 23.7992 42.5186 27.7908C40.7864 28.318 39.5061 29.5983 38.9789 31.3306H31.3722L30.845 36.6025L35.1379 72H67.8994L69.1797 61.4561H70.7613C73.0207 61.4561 74.8282 59.6485 74.8282 57.3891V36.5272C74.9035 32.385 71.5144 28.9205 67.2969 28.9205ZM65.2634 68.9875H37.8492L37.5479 66.5021H51.7069V63.4896H37.1713L35.4391 49.1799H50.2006V46.1674H35.0625L34.686 43.1548H50.2006V40.1423H34.3094L33.8575 36.6025L34.0835 34.3431H41.7655V32.8368C41.7655 31.5565 42.7446 30.5774 44.0249 30.5774C45.3052 30.5774 46.2843 31.5565 46.2843 32.8368V34.3431H53.0625V57.3891C53.0625 59.6485 54.8701 61.4561 57.1295 61.4561H66.1671L65.2634 68.9875ZM71.891 57.3891C71.891 57.9916 71.4391 58.4435 70.8366 58.4435H61.573V44.2092H58.5605V58.4435H57.2048C56.6023 58.4435 56.1504 57.9916 56.1504 57.3891V31.9331H67.3722C69.9328 31.9331 71.9663 33.9665 71.9663 36.5272V57.3891H71.891Z" fill="#F78600"/>
</svg>
