<svg width="65" height="67" viewBox="0 0 65 67" fill="none" xmlns="http://www.w3.org/2000/svg">
<path d="M1.56793 65.4472C2.5765 66.4504 3.91388 67 5.33035 67H59.6741C61.0992 67 62.4367 66.4548 63.4366 65.4472C64.4802 64.409 65.0415 62.9695 64.9976 61.4821C64.6293 50.4944 62.4279 39.7072 58.4551 29.4217L53.8289 17.4522V8.93329C53.8289 4.00859 49.7991 0 44.8483 0H20.1517C15.2009 0 11.1711 4.00859 11.1711 8.93329V17.4522L6.54486 29.4217C2.57196 39.7071 0.370706 50.4942 0.0023891 61.4821C-0.041462 62.9652 0.519828 64.409 1.56344 65.4472H1.56793ZM51.5887 24.0872L54.2723 31.0226C57.8988 40.3921 59.9729 50.2069 60.4596 60.1909L60.5166 61.3643C60.5517 62.0012 60.0342 62.5377 59.394 62.5377H42.6127L42.7267 60.1909C43.209 50.1977 45.2964 40.3836 48.914 31.0226L51.5976 24.0872H51.5887ZM15.6663 8.93407C15.6663 6.46524 17.6747 4.46743 20.1566 4.46743H44.8532C47.3351 4.46743 49.3435 6.46524 49.3435 8.93407V17.8674H15.6663V8.93407ZM8.94402 36.1705C9.57108 34.2164 10.1455 32.5851 10.7419 31.0234L14.1097 22.3256H47.4624L44.7218 29.4182C43.7351 31.9744 42.8231 34.6875 42.0162 37.4703L41.5426 39.0799H8.01018L8.9398 36.1661L8.94402 36.1705ZM4.55454 60.1877C4.8001 55.1758 5.44032 50.1814 6.49715 45.278L6.86549 43.5463H40.4203L39.9029 46.2027C38.9952 50.9049 38.4339 55.6726 38.219 60.3966L38.1313 62.5297H5.62048C4.98027 62.5297 4.46289 61.9931 4.49791 61.3563L4.55491 60.1829L4.55454 60.1877Z" fill="#8C5000"/>
</svg>
