<svg width="74" height="74" viewBox="0 0 74 74" fill="none" xmlns="http://www.w3.org/2000/svg">
<g filter="url(#filter0_d_1288_22704)">
<mask id="path-1-inside-1_1288_22704" fill="white">
<path d="M69.936 55.449C69.6306 53.9146 68.2855 52.801 66.7093 52.801H65.4137C65.5375 52.4462 65.6118 52.075 65.6118 51.6955C65.6118 49.8724 64.1346 48.3957 62.3108 48.3957H61.0235C61.6341 46.6799 60.7347 44.7908 59.0099 44.1886C58.6551 44.0648 58.2837 43.9989 57.9123 43.9989H56.625C57.2274 42.283 56.3279 40.3939 54.6114 39.7834C54.2566 39.6597 53.8852 39.6019 53.5139 39.6019H45.8062V17.6008H48.0096C49.8333 17.6008 51.3105 16.1241 51.3105 14.301V5.49885C51.3105 3.67576 49.8333 2.19908 48.0096 2.19908H45.6082C45.014 0.499708 43.149 -0.407706 41.449 0.17802C41.0199 0.326503 40.632 0.55746 40.3102 0.862684C38.9733 -0.358212 36.9102 -0.267481 35.6889 1.06071C35.3835 1.39066 35.1525 1.77841 35.004 2.19908H31.5049C28.9715 2.20734 26.6691 3.65924 25.5633 5.93609C25.3652 6.29906 24.9691 6.51356 24.5565 6.47232L6.31064 5.56485C5.09752 5.49885 4.05777 6.43103 4 7.65198V12.0489C4 12.6511 4.24756 13.2286 4.6767 13.6411C5.11404 14.0617 5.70824 14.2762 6.31064 14.2432L24.5648 13.3358C24.9691 13.2945 25.3652 13.5008 25.5633 13.8638C26.6608 16.1406 28.9715 17.5925 31.5049 17.6008H35.004C35.5816 19.2919 37.4219 20.2075 39.1219 19.6301C39.1466 19.6219 39.1796 19.6054 39.2044 19.5971V39.6019H20.5046C18.6809 39.6019 17.2037 41.0785 17.2037 42.8934C17.2037 43.2729 17.2615 43.6441 17.3852 43.9989H16.0979C14.2741 43.9989 12.7969 45.4755 12.7969 47.2986C12.7969 47.6698 12.863 48.041 12.9867 48.3957H11.6994C9.87564 48.3957 8.39845 49.8724 8.39845 51.6955C8.39845 52.075 8.47274 52.4462 8.59655 52.801H7.30093C5.47715 52.801 4 54.2858 4.00821 56.109C4.01647 57.6763 5.13056 59.0292 6.66548 59.3345L9.14944 63.055C10.3708 64.8946 12.4338 66 14.6455 66H59.3648C61.5764 66 63.6395 64.8946 64.8608 63.055L67.3447 59.3345C69.1355 58.9797 70.2908 57.2391 69.936 55.449ZM45.8062 4.40171H48.0096C48.612 4.40171 49.1071 4.89665 49.1071 5.49885V6.60429H45.8062V4.40171ZM45.8062 8.79861H49.1071V11.0012H45.8062V8.79861ZM45.8062 13.2038H49.1071V14.301C49.1071 14.9114 48.612 15.3981 48.0096 15.3981H45.8062V13.2038ZM34.8059 6.60429H33.7083C33.0976 6.60429 32.6025 7.09102 32.6025 7.70147C32.6025 8.31192 33.0976 8.79861 33.7083 8.79861H34.8059V11.0012H33.7083C33.0976 11.0012 32.6025 11.4962 32.6025 12.0984C32.6025 12.7089 33.0976 13.2038 33.7083 13.2038H34.8059V15.3981H31.5049C29.8132 15.3981 28.2783 14.4247 27.5438 12.9068C26.9579 11.7519 25.7448 11.0507 24.4492 11.1332L6.19509 12.0489V7.75922L24.4492 8.66664C25.7448 8.74911 26.9662 8.04793 27.5438 6.893C28.2783 5.36688 29.8132 4.40171 31.5049 4.40171H34.8059V6.60429ZM41.4077 3.30453C41.4077 2.69408 41.9029 2.19908 42.5053 2.19908C43.1159 2.19908 43.6111 2.69408 43.6111 3.30453V39.6019H41.4077V3.30453ZM38.1068 17.6008C37.4961 17.6008 37.0093 17.1058 37.0093 16.5036V3.30453C37.0093 2.69408 37.4961 2.19908 38.1068 2.19908C38.7175 2.19908 39.2044 2.69408 39.2044 3.30453V16.5036C39.2044 17.1058 38.7175 17.6008 38.1068 17.6008ZM63.0288 61.8341C62.2118 63.0632 60.842 63.7974 59.3648 63.7974H14.6455C13.1683 63.7974 11.7984 63.0632 10.9814 61.8341L9.35574 59.4005H64.6545L63.0288 61.8341ZM66.7093 57.1979H7.30093C6.69021 57.1979 6.19509 56.7029 6.19509 56.1007C6.19509 55.4903 6.69021 54.9953 7.30093 54.9953H66.7093C67.32 54.9953 67.8151 55.4903 67.8151 56.1007C67.8151 56.7029 67.32 57.1979 66.7093 57.1979Z"/>
</mask>
<path d="M69.936 55.449C69.6306 53.9146 68.2855 52.801 66.7093 52.801H65.4137C65.5375 52.4462 65.6118 52.075 65.6118 51.6955C65.6118 49.8724 64.1346 48.3957 62.3108 48.3957H61.0235C61.6341 46.6799 60.7347 44.7908 59.0099 44.1886C58.6551 44.0648 58.2837 43.9989 57.9123 43.9989H56.625C57.2274 42.283 56.3279 40.3939 54.6114 39.7834C54.2566 39.6597 53.8852 39.6019 53.5139 39.6019H45.8062V17.6008H48.0096C49.8333 17.6008 51.3105 16.1241 51.3105 14.301V5.49885C51.3105 3.67576 49.8333 2.19908 48.0096 2.19908H45.6082C45.014 0.499708 43.149 -0.407706 41.449 0.17802C41.0199 0.326503 40.632 0.55746 40.3102 0.862684C38.9733 -0.358212 36.9102 -0.267481 35.6889 1.06071C35.3835 1.39066 35.1525 1.77841 35.004 2.19908H31.5049C28.9715 2.20734 26.6691 3.65924 25.5633 5.93609C25.3652 6.29906 24.9691 6.51356 24.5565 6.47232L6.31064 5.56485C5.09752 5.49885 4.05777 6.43103 4 7.65198V12.0489C4 12.6511 4.24756 13.2286 4.6767 13.6411C5.11404 14.0617 5.70824 14.2762 6.31064 14.2432L24.5648 13.3358C24.9691 13.2945 25.3652 13.5008 25.5633 13.8638C26.6608 16.1406 28.9715 17.5925 31.5049 17.6008H35.004C35.5816 19.2919 37.4219 20.2075 39.1219 19.6301C39.1466 19.6219 39.1796 19.6054 39.2044 19.5971V39.6019H20.5046C18.6809 39.6019 17.2037 41.0785 17.2037 42.8934C17.2037 43.2729 17.2615 43.6441 17.3852 43.9989H16.0979C14.2741 43.9989 12.7969 45.4755 12.7969 47.2986C12.7969 47.6698 12.863 48.041 12.9867 48.3957H11.6994C9.87564 48.3957 8.39845 49.8724 8.39845 51.6955C8.39845 52.075 8.47274 52.4462 8.59655 52.801H7.30093C5.47715 52.801 4 54.2858 4.00821 56.109C4.01647 57.6763 5.13056 59.0292 6.66548 59.3345L9.14944 63.055C10.3708 64.8946 12.4338 66 14.6455 66H59.3648C61.5764 66 63.6395 64.8946 64.8608 63.055L67.3447 59.3345C69.1355 58.9797 70.2908 57.2391 69.936 55.449ZM45.8062 4.40171H48.0096C48.612 4.40171 49.1071 4.89665 49.1071 5.49885V6.60429H45.8062V4.40171ZM45.8062 8.79861H49.1071V11.0012H45.8062V8.79861ZM45.8062 13.2038H49.1071V14.301C49.1071 14.9114 48.612 15.3981 48.0096 15.3981H45.8062V13.2038ZM34.8059 6.60429H33.7083C33.0976 6.60429 32.6025 7.09102 32.6025 7.70147C32.6025 8.31192 33.0976 8.79861 33.7083 8.79861H34.8059V11.0012H33.7083C33.0976 11.0012 32.6025 11.4962 32.6025 12.0984C32.6025 12.7089 33.0976 13.2038 33.7083 13.2038H34.8059V15.3981H31.5049C29.8132 15.3981 28.2783 14.4247 27.5438 12.9068C26.9579 11.7519 25.7448 11.0507 24.4492 11.1332L6.19509 12.0489V7.75922L24.4492 8.66664C25.7448 8.74911 26.9662 8.04793 27.5438 6.893C28.2783 5.36688 29.8132 4.40171 31.5049 4.40171H34.8059V6.60429ZM41.4077 3.30453C41.4077 2.69408 41.9029 2.19908 42.5053 2.19908C43.1159 2.19908 43.6111 2.69408 43.6111 3.30453V39.6019H41.4077V3.30453ZM38.1068 17.6008C37.4961 17.6008 37.0093 17.1058 37.0093 16.5036V3.30453C37.0093 2.69408 37.4961 2.19908 38.1068 2.19908C38.7175 2.19908 39.2044 2.69408 39.2044 3.30453V16.5036C39.2044 17.1058 38.7175 17.6008 38.1068 17.6008ZM63.0288 61.8341C62.2118 63.0632 60.842 63.7974 59.3648 63.7974H14.6455C13.1683 63.7974 11.7984 63.0632 10.9814 61.8341L9.35574 59.4005H64.6545L63.0288 61.8341ZM66.7093 57.1979H7.30093C6.69021 57.1979 6.19509 56.7029 6.19509 56.1007C6.19509 55.4903 6.69021 54.9953 7.30093 54.9953H66.7093C67.32 54.9953 67.8151 55.4903 67.8151 56.1007C67.8151 56.7029 67.32 57.1979 66.7093 57.1979Z" fill="#8232FF"/>
<path d="M69.936 55.449C69.6306 53.9146 68.2855 52.801 66.7093 52.801H65.4137C65.5375 52.4462 65.6118 52.075 65.6118 51.6955C65.6118 49.8724 64.1346 48.3957 62.3108 48.3957H61.0235C61.6341 46.6799 60.7347 44.7908 59.0099 44.1886C58.6551 44.0648 58.2837 43.9989 57.9123 43.9989H56.625C57.2274 42.283 56.3279 40.3939 54.6114 39.7834C54.2566 39.6597 53.8852 39.6019 53.5139 39.6019H45.8062V17.6008H48.0096C49.8333 17.6008 51.3105 16.1241 51.3105 14.301V5.49885C51.3105 3.67576 49.8333 2.19908 48.0096 2.19908H45.6082C45.014 0.499708 43.149 -0.407706 41.449 0.17802C41.0199 0.326503 40.632 0.55746 40.3102 0.862684C38.9733 -0.358212 36.9102 -0.267481 35.6889 1.06071C35.3835 1.39066 35.1525 1.77841 35.004 2.19908H31.5049C28.9715 2.20734 26.6691 3.65924 25.5633 5.93609C25.3652 6.29906 24.9691 6.51356 24.5565 6.47232L6.31064 5.56485C5.09752 5.49885 4.05777 6.43103 4 7.65198V12.0489C4 12.6511 4.24756 13.2286 4.6767 13.6411C5.11404 14.0617 5.70824 14.2762 6.31064 14.2432L24.5648 13.3358C24.9691 13.2945 25.3652 13.5008 25.5633 13.8638C26.6608 16.1406 28.9715 17.5925 31.5049 17.6008H35.004C35.5816 19.2919 37.4219 20.2075 39.1219 19.6301C39.1466 19.6219 39.1796 19.6054 39.2044 19.5971V39.6019H20.5046C18.6809 39.6019 17.2037 41.0785 17.2037 42.8934C17.2037 43.2729 17.2615 43.6441 17.3852 43.9989H16.0979C14.2741 43.9989 12.7969 45.4755 12.7969 47.2986C12.7969 47.6698 12.863 48.041 12.9867 48.3957H11.6994C9.87564 48.3957 8.39845 49.8724 8.39845 51.6955C8.39845 52.075 8.47274 52.4462 8.59655 52.801H7.30093C5.47715 52.801 4 54.2858 4.00821 56.109C4.01647 57.6763 5.13056 59.0292 6.66548 59.3345L9.14944 63.055C10.3708 64.8946 12.4338 66 14.6455 66H59.3648C61.5764 66 63.6395 64.8946 64.8608 63.055L67.3447 59.3345C69.1355 58.9797 70.2908 57.2391 69.936 55.449ZM45.8062 4.40171H48.0096C48.612 4.40171 49.1071 4.89665 49.1071 5.49885V6.60429H45.8062V4.40171ZM45.8062 8.79861H49.1071V11.0012H45.8062V8.79861ZM45.8062 13.2038H49.1071V14.301C49.1071 14.9114 48.612 15.3981 48.0096 15.3981H45.8062V13.2038ZM34.8059 6.60429H33.7083C33.0976 6.60429 32.6025 7.09102 32.6025 7.70147C32.6025 8.31192 33.0976 8.79861 33.7083 8.79861H34.8059V11.0012H33.7083C33.0976 11.0012 32.6025 11.4962 32.6025 12.0984C32.6025 12.7089 33.0976 13.2038 33.7083 13.2038H34.8059V15.3981H31.5049C29.8132 15.3981 28.2783 14.4247 27.5438 12.9068C26.9579 11.7519 25.7448 11.0507 24.4492 11.1332L6.19509 12.0489V7.75922L24.4492 8.66664C25.7448 8.74911 26.9662 8.04793 27.5438 6.893C28.2783 5.36688 29.8132 4.40171 31.5049 4.40171H34.8059V6.60429ZM41.4077 3.30453C41.4077 2.69408 41.9029 2.19908 42.5053 2.19908C43.1159 2.19908 43.6111 2.69408 43.6111 3.30453V39.6019H41.4077V3.30453ZM38.1068 17.6008C37.4961 17.6008 37.0093 17.1058 37.0093 16.5036V3.30453C37.0093 2.69408 37.4961 2.19908 38.1068 2.19908C38.7175 2.19908 39.2044 2.69408 39.2044 3.30453V16.5036C39.2044 17.1058 38.7175 17.6008 38.1068 17.6008ZM63.0288 61.8341C62.2118 63.0632 60.842 63.7974 59.3648 63.7974H14.6455C13.1683 63.7974 11.7984 63.0632 10.9814 61.8341L9.35574 59.4005H64.6545L63.0288 61.8341ZM66.7093 57.1979H7.30093C6.69021 57.1979 6.19509 56.7029 6.19509 56.1007C6.19509 55.4903 6.69021 54.9953 7.30093 54.9953H66.7093C67.32 54.9953 67.8151 55.4903 67.8151 56.1007C67.8151 56.7029 67.32 57.1979 66.7093 57.1979Z" stroke="black" stroke-width="2" mask="url(#path-1-inside-1_1288_22704)"/>
</g>
<defs>
<filter id="filter0_d_1288_22704" x="0" y="0" width="74" height="74" filterUnits="userSpaceOnUse" color-interpolation-filters="sRGB">
<feFlood flood-opacity="0" result="BackgroundImageFix"/>
<feColorMatrix in="SourceAlpha" type="matrix" values="0 0 0 0 0 0 0 0 0 0 0 0 0 0 0 0 0 0 127 0" result="hardAlpha"/>
<feOffset dy="4"/>
<feGaussianBlur stdDeviation="2"/>
<feComposite in2="hardAlpha" operator="out"/>
<feColorMatrix type="matrix" values="0 0 0 0 0 0 0 0 0 0 0 0 0 0 0 0 0 0 0.25 0"/>
<feBlend mode="normal" in2="BackgroundImageFix" result="effect1_dropShadow_1288_22704"/>
<feBlend mode="normal" in="SourceGraphic" in2="effect1_dropShadow_1288_22704" result="shape"/>
</filter>
</defs>
</svg>
