<svg width="23" height="23" viewBox="0 0 23 23" fill="none" xmlns="http://www.w3.org/2000/svg">
<path d="M14.8445 6.73711C15.0745 7.2067 15.6878 7.65711 16.2053 7.74336L19.2624 8.25128C21.2174 8.57711 21.6774 9.99545 20.2687 11.3946L17.892 13.7713C17.4895 14.1738 17.2691 14.95 17.3937 15.5059L18.0741 18.4479C18.6107 20.7767 17.3745 21.6775 15.3141 20.4604L12.4487 18.7642C11.9312 18.4575 11.0782 18.4575 10.5512 18.7642L7.68575 20.4604C5.63491 21.6775 4.38908 20.7671 4.92575 18.4479L5.60616 15.5059C5.73075 14.95 5.51033 14.1738 5.10783 13.7713L2.73116 11.3946C1.332 9.99545 1.78241 8.57711 3.73741 8.25128L6.7945 7.74336C7.30241 7.65711 7.91575 7.2067 8.14575 6.73711L9.83241 3.36378C10.7524 1.53336 12.2474 1.53336 13.1578 3.36378L14.8445 6.73711Z" fill="#FFEB38"/>
</svg>
