<?xml version="1.0" encoding="UTF-8"?>
<svg version="1.1" viewBox="0 0 2048 1228" width="1280" height="1280" xmlns="http://www.w3.org/2000/svg">
<path transform="translate(0)" d="m0 0h2048v1228h-2048z" fill="#C5122D"/>
<path transform="translate(1147,737)" d="m0 0h901v491h-901z" fill="#FEFEFE"/>
<path transform="translate(0,737)" d="m0 0h901v491h-901z" fill="#FEFEFE"/>
<path transform="translate(1147)" d="m0 0h901v491h-901z" fill="#FEFEFE"/>
<path transform="translate(0)" d="m0 0h901v491h-901z" fill="#FEFEFE"/>
<path transform="translate(1229,881)" d="m0 0 5 2 29 17 28 17 27 16 45 27 28 17 29 17 28 17 32 19 28 17 32 19 28 17 32 19 28 17 32 19 28 17 32 19 28 17 32 19 28 17v1h-579z" fill="#022267"/>
<path transform="translate(817,881)" d="m0 0h2v347h-579l5-4 32-19 28-17 32-19 28-17 32-19 28-17 32-19 28-17 32-19 20-12 28-17 29-17 18-11 32-19 28-17 32-19 28-17 32-19 28-17z" fill="#022267"/>
<path transform="translate(1229)" d="m0 0h579l-5 4-32 19-28 17-32 19-28 17-32 19-28 17-17 10-55 33-32 19-28 17-32 19-28 17-32 19-28 17-32 19-28 17-32 19-28 17-20 12h-2z" fill="#022267"/>
<path transform="translate(240)" d="m0 0h579v347l-5-2-29-17-28-17-32-19-28-17-32-19-28-17-32-19-28-17-32-19-28-17-32-19-28-17-32-19-28-17-27-16-50-30-32-19-28-17-20-12z" fill="#022267"/>
<path transform="translate(681,819)" d="m0 0h138v14l-29 17-28 17-32 19-28 17-32 19-28 17-32 19-28 17-27 16-28 17-22 13-90 54-32 19-13 8-32 19-28 17-32 19-28 17-32 19-28 17-30 18h-159l5-4 120-72 32-19 28-17 32-19 28-17 32-19 28-17 32-19 28-17 32-19 28-17 32-19 28-17 32-19 140-84z" fill="#C5122D"/>
<path transform="translate(1888)" d="m0 0h159l-5 4-32 19-28 17-32 19-28 17-32 19-20 12-28 17-27 16-85 51-32 19-28 17-32 19-28 17-32 19-28 17-32 19-28 17-32 19-28 17-32 19-28 17-4 2h-137v-14l29-17 28-17 32-19 28-17 32-19 28-17 32-19 28-17 32-19 28-17 32-19 28-17 32-19 35-21 32-19 28-17 32-19 28-17 32-19 28-17 32-19z" fill="#C5122D"/>
<path transform="translate(2046,144)" d="m0 0h2v265h-443l4-3 32-19 28-17 32-19 20-12 28-17 29-17 18-11 32-19 28-17 32-19 28-17 32-19 28-17 32-19 28-17z" fill="#022267"/>
<path transform="translate(0,144)" d="m0 0 5 2 29 17 28 17 32 19 28 17 32 19 28 17 32 19 28 17 32 19 28 17 22 13 35 21 32 19 28 17 23 14v1h-442z" fill="#022267"/>
<path transform="translate(0,819)" d="m0 0h442l-5 4-32 19-28 17-32 19-28 17-32 19-28 17-32 19-28 17-32 19-28 17-22 13-70 42-32 19-11 7h-2z" fill="#022267"/>
<path transform="translate(1606,819)" d="m0 0h442v265l-5-2-32-19-28-17-32-19-40-24-32-19-28-17-32-19-28-17-32-19-28-17-32-19-28-17-32-19-28-17z" fill="#022267"/>
<path transform="translate(1367,819)" d="m0 0h159l32 19 28 17 32 19 28 17 32 19 28 17 32 19 28 17 32 19 28 17 22 13 90 54 32 19 28 17 32 19 18 11v96l-14-8-32-19-28-17-32-19-28-17-32-19-20-12-28-17-22-13-28-17-29-17-28-17-32-19-28-17-32-19-28-17-32-19-28-17-32-19-28-17-32-19-28-17-32-19-25-15z" fill="#C5122D"/>
<path transform="translate(0)" d="m0 0 11 6 20 12 28 17 27 16 15 9 32 19 13 8 32 19 28 17 32 19 28 17 32 19 28 17 32 19 28 17 32 19 28 17 32 19 28 17 32 19 28 17 27 16 25 15 28 17 29 17 6 4v1h-159l-28-17-32-19-28-17-22-13-28-17-29-17-18-11-32-19-28-17-32-19-28-17-32-19-28-17-32-19-28-17-32-19-28-17-32-19-5-3z" fill="#C5122D"/>
</svg>
